<svg width="196" height="69" viewBox="0 0 196 69" fill="none" xmlns="http://www.w3.org/2000/svg">
<path fill-rule="evenodd" clip-rule="evenodd" d="M88 51L98.0008 69L108 51H88Z" fill="#A5C2D0"/>
<mask id="mask0_2_574" style="mask-type:luminance" maskUnits="userSpaceOnUse" x="0" y="1" width="14" height="14">
<path d="M0 1.82812H13.0762V14.5795H0V1.82812Z" fill="white"/>
</mask>
<g mask="url(#mask0_2_574)">
<path fill-rule="evenodd" clip-rule="evenodd" d="M0.238496 10.7442C0.694731 9.72416 1.34532 8.82916 1.99591 7.93249C2.81285 6.82416 5.61614 3.51583 6.23379 2.93249C7.39826 1.76583 8.20532 1.55749 9.3352 2.14749C11.3216 3.05749 13.4743 4.07916 13.0131 5.35083C12.603 6.82416 10.5507 5.74083 9.04203 4.72416C8.50508 4.40583 8.13779 4.34583 7.72108 4.87749C7.3752 5.33416 7.02438 5.71583 6.69167 6.14249C6.41167 6.44916 6.4545 6.82916 6.84485 7.08083C8.06532 7.78416 8.97944 8.05916 8.62861 9.16249C8.05708 10.5992 6.72461 9.66583 5.17473 9.13583C4.56697 8.89416 4.29355 8.94916 3.90485 9.42083C3.65285 9.73916 3.40579 10.1342 3.17191 10.4975C2.92814 10.9642 3.04508 11.3408 3.57708 11.5858C5.44485 12.4425 6.89591 12.2375 6.54508 13.7408C6.44626 14.2008 6.00814 14.5425 5.45473 14.5792C4.87167 14.6008 1.46226 13.4375 1.0785 13.2625C0.0210842 12.6692 -0.258916 11.8542 0.238496 10.7442Z" fill="#F3EEE7"/>
</g>
<path fill-rule="evenodd" clip-rule="evenodd" d="M17.9492 19.6943C18.6854 18.5593 19.4414 17.4659 21.2795 14.8393C21.7852 14.0759 22.131 13.5709 21.8988 13.2443C21.6682 12.9193 21.1494 13.2226 20.6602 13.5393L18.7579 14.9576C17.7087 15.7026 17.1404 15.8509 16.5376 15.6026C15.5444 15.1826 15.7174 13.9876 15.92 12.6993C15.999 12.1693 16.1061 11.8593 15.7388 11.7293C15.4308 11.6193 15.1607 11.9076 14.8543 12.2893C13.8282 13.5643 12.8746 14.8309 11.9193 16.2009C11.2868 17.2326 10.5917 17.5459 9.9708 17.1526C9.44045 16.7909 9.23456 16.0893 9.55245 15.4693C10.231 14.0009 14.2943 9.02092 16.0517 7.13092C16.7419 6.32759 17.5061 6.00759 18.1204 6.22425C19.4414 6.69092 19.1532 8.82259 18.9044 10.4409C18.8369 10.8376 18.8666 11.0543 19.1499 11.2259C19.448 11.3659 19.6539 11.2643 20.2369 10.8776C21.6797 9.99425 24.1866 8.71759 25.2308 9.08759C25.8748 9.31425 26.2256 9.99759 26.1317 10.8693C26.0016 12.0443 24.9623 13.5593 24.2261 14.6943C22.5626 17.3143 20.2402 20.7476 19.6868 21.2509C19.1976 21.6709 18.5701 21.6909 18.0924 21.2776C17.5917 20.9276 17.5407 20.2826 17.9492 19.6943Z" fill="#F3EEE7"/>
<path fill-rule="evenodd" clip-rule="evenodd" d="M32.8773 14.4193C32.818 13.7559 32.3123 13.7543 31.6766 14.1243C30.0509 15.2859 28.674 16.7843 28.1156 18.8826C27.8801 19.7726 27.9147 20.3959 28.4006 20.5976C29.598 21.1626 32.925 16.1359 32.8773 14.4193ZM25.7439 21.3376C24.7359 18.1643 27.5672 13.8559 30.6982 11.8459C31.2648 11.4893 31.8693 11.2459 32.4392 11.1276C33.3417 11.0326 33.8095 11.2976 34.1752 12.0793C34.3432 12.4643 34.5194 12.6843 34.7665 12.8876C35.5966 13.6943 35.4072 15.5526 34.7829 16.8826C33.5674 19.4143 31.8166 21.9393 29.5815 22.9976C27.8768 23.8293 26.3417 23.1376 25.7439 21.3376Z" fill="#F3EEE7"/>
<path fill-rule="evenodd" clip-rule="evenodd" d="M38.1176 23.9439C39.3561 21.9872 42.1463 16.7272 42.3686 15.6639C42.4296 15.3722 42.3554 15.0889 42.0046 15.0139C40.2867 14.6472 38.4041 14.5822 37.6399 14.4189C37.2578 14.3372 36.9926 14.0122 36.9481 13.4305C36.8576 12.7372 37.5872 12.1189 38.4404 12.1689C40.7627 12.1905 42.4328 12.4805 48.6357 13.8372C49.8776 14.1022 50.4013 14.6172 50.2399 15.3905C50.1279 15.9372 49.6074 16.3655 48.9881 16.3005C48.2107 16.2022 47.1517 16.0105 46.5159 15.8739C45.274 15.6105 45.1571 15.6855 44.5921 16.8105C43.1691 19.8055 41.5154 23.1205 40.127 25.3139C39.5505 26.1672 38.7303 26.4305 38.1357 25.9322C37.5394 25.4372 37.5345 24.8289 38.1176 23.9439Z" fill="#F3EEE7"/>
<path fill-rule="evenodd" clip-rule="evenodd" d="M52.8044 16.2339C53.1964 15.6673 53.7959 15.4356 54.2867 15.6539C55.0312 15.9473 55.135 16.7006 54.6277 17.9489C53.7745 20.1056 52.5985 22.0073 51.4966 24.0539C50.2086 26.4373 49.5844 28.0006 48.4364 27.3706C47.1171 26.7756 48.158 25.0856 48.9223 23.6806C50.5265 20.9856 52.4338 16.8723 52.8044 16.2339Z" fill="#F3EEE7"/>
<path fill-rule="evenodd" clip-rule="evenodd" d="M61.8214 20.0066C61.6781 19.3566 61.1774 19.42 60.5927 19.8733C59.1301 21.235 57.9557 22.9016 57.6691 25.055C57.5456 25.9683 57.6625 26.5816 58.1698 26.7183C59.4282 27.1233 62.0882 21.705 61.8214 20.0066ZM55.6284 27.8C54.2251 24.785 56.4849 20.1433 59.3327 17.7416C59.8498 17.3133 60.4181 16.9916 60.9682 16.8016C61.851 16.5883 62.3484 16.79 62.8096 17.5183C63.0237 17.88 63.228 18.0733 63.5014 18.2433C64.427 18.9333 64.4731 20.8016 64.0251 22.2016C63.144 24.8716 61.7275 27.6033 59.6472 28.945C58.0611 29.9916 56.452 29.5066 55.6284 27.8Z" fill="#F3EEE7"/>
<path fill-rule="evenodd" clip-rule="evenodd" d="M64.9997 28.7306C65.0409 28.2723 66.011 25.7806 66.8477 24.0723C68.3465 20.7723 69.6296 17.3523 70.9555 17.4723C71.3804 17.4773 71.7526 17.709 72.0129 18.0956C72.4148 18.6956 72.8331 21.0106 72.9945 22.514L73.1773 23.7523C73.2959 24.2573 73.3733 24.4973 73.7307 24.529C74.1524 24.5673 74.3698 23.9256 74.9726 22.6573C75.7797 20.9156 76.651 19.1756 77.3131 18.7056C77.5536 18.5623 77.7908 18.4856 78.1136 18.514C78.5995 18.5573 79.2056 19.0756 79.1067 19.8273C79.087 20.0573 78.9667 20.309 78.8119 20.5923C77.3675 22.909 76.9112 23.9906 75.3284 27.5156C75.0023 28.2456 74.6333 29.1056 74.1557 30.084C73.9169 30.5606 73.5018 30.819 73.0489 30.779C72.5943 30.7373 72.1611 30.4673 71.8482 29.944C71.3376 29.0706 71.3656 28.0156 70.7035 23.6606C70.5816 23.2206 70.0644 23.1406 69.8355 23.5173C68.9164 25.0523 67.9578 27.4106 67.3632 28.9756C67.0239 29.8723 66.4639 30.284 65.7969 30.0573C65.2912 29.879 64.9453 29.3523 64.9997 28.7306Z" fill="#F3EEE7"/>
<path fill-rule="evenodd" clip-rule="evenodd" d="M85.1006 25.9425C85.4086 24.3108 85.4201 24.0475 85.1352 23.9341C84.4977 23.6058 82.966 25.6375 83.2624 26.2475C83.3777 26.5491 83.6347 26.5958 84.1881 26.6225C84.6427 26.6458 85.0116 26.4325 85.1006 25.9425ZM84.3841 29.9291C84.4384 29.5025 84.1947 29.1275 83.7747 29.0741L81.701 28.8708C81.342 28.8525 81.1064 29.0058 80.8264 29.3875C80.161 30.3441 79.3227 31.5225 79.0509 31.7391C78.6145 32.0141 78.0627 31.9858 77.6542 31.6691C77.0563 31.2441 77.0596 30.5175 77.758 29.5308L80.7144 25.0641C81.9464 23.1808 84.9243 19.5725 86.1283 18.9075C87.1989 18.3358 88.2168 18.8808 88.3222 20.0391C88.4194 21.3941 86.965 30.4541 86.5434 31.7508C86.3523 32.3341 85.817 32.6375 85.2356 32.5091C84.1387 32.2908 84.3149 31.3425 84.3841 29.9291Z" fill="#F3EEE7"/>
<path fill-rule="evenodd" clip-rule="evenodd" d="M89.8793 30.5147C89.792 29.788 90.9055 26.843 92.0897 23.6013C92.5937 22.2247 93.1026 20.8497 93.577 19.4413C93.9525 18.2613 94.4433 17.8747 95.2224 18.083C96.0328 18.2913 96.2485 19.0197 95.8104 20.263C94.9968 22.6213 94.1831 24.9463 93.6775 26.3547C93.1026 27.9597 92.7996 28.6463 93.2525 28.883C93.4782 29.0197 94.0003 28.9597 95.14 28.7447C96.153 28.5613 96.9963 28.6063 97.1149 29.5647C97.2022 30.1563 96.8695 30.7113 96.3144 30.8697C94.8106 31.3413 91.8113 31.9247 91.2266 31.883C90.4459 31.8397 89.9979 31.373 89.8793 30.5147Z" fill="#F3EEE7"/>
<path fill-rule="evenodd" clip-rule="evenodd" d="M107.991 29.2841C108.457 27.1791 109.158 21.2375 109.364 19.7091C109.503 18.7125 109.929 18.1925 110.545 18.1558C111.39 18.1391 111.925 18.9325 111.754 19.9325C111.626 21.0925 111.23 23.8208 111.268 24.5108C111.288 24.8375 111.69 25.0458 111.97 24.7991C112.34 24.4475 113.068 23.5141 113.54 23.2225C114.325 22.6808 115.18 22.8608 115.687 23.7225C116.152 24.4541 116.158 26.2658 116.781 26.3291C117.339 26.3958 117.992 24.7075 119.014 22.1091C120.213 19.1375 120.721 17.1958 122.119 17.7075C122.621 17.9408 122.949 18.5491 122.784 19.1175C122.552 20.1541 118.25 30.3625 117.802 31.0491C117.084 32.1791 115.743 32.0941 115.187 30.9058C114.776 30.0075 114.557 29.0308 114.338 28.0208C114.076 26.8841 113.65 26.8108 112.887 27.7125C110.552 30.7491 110.341 31.0575 110.156 31.2658C109.695 31.7225 109.181 31.8525 108.648 31.6525C107.948 31.3641 107.706 30.5541 107.991 29.2841Z" fill="#F3EEE7"/>
<path fill-rule="evenodd" clip-rule="evenodd" d="M124.571 28.9276C124.457 27.8143 124.571 26.7093 124.686 25.6043C124.837 24.231 125.605 19.9426 125.847 19.1226C126.269 17.521 126.865 16.9293 128.131 16.861C130.301 16.6293 132.667 16.4126 132.905 17.7443C133.287 19.2276 130.976 19.341 129.164 19.2343C128.542 19.2343 128.196 19.371 128.103 20.0426C128.031 20.6126 127.919 21.121 127.843 21.6593C127.756 22.066 127.983 22.3726 128.444 22.391C129.849 22.3726 130.775 22.1443 131.022 23.276C131.246 24.8076 129.63 24.6826 128.029 25.0176C127.385 25.1193 127.175 25.306 127.074 25.9126C127.016 26.3176 127 26.7826 126.98 27.216C127.003 27.7426 127.291 28.0093 127.875 27.9476C129.914 27.731 131.062 26.8143 131.51 28.291C131.655 28.7393 131.445 29.2576 130.987 29.5726C130.497 29.8876 126.974 30.6276 126.552 30.671C125.345 30.6993 124.696 30.141 124.571 28.9276Z" fill="#F3EEE7"/>
<path fill-rule="evenodd" clip-rule="evenodd" d="M134.434 28.3841C134.239 27.6791 134.896 24.5957 135.578 21.2074C135.875 19.7707 136.168 18.3341 136.425 16.8674C136.618 15.6424 137.047 15.1841 137.846 15.2707C138.68 15.3524 139.004 16.0391 138.757 17.3357C138.307 19.7924 137.853 22.2174 137.563 23.6874C137.235 25.3624 137.041 26.0874 137.523 26.2524C137.766 26.3507 138.275 26.2124 139.37 25.8257C140.342 25.4891 141.183 25.4024 141.443 26.3307C141.62 26.9024 141.376 27.5041 140.851 27.7424C139.436 28.4407 136.557 29.4791 135.972 29.5291C135.195 29.6057 134.681 29.2124 134.434 28.3841Z" fill="#F3EEE7"/>
<path fill-rule="evenodd" clip-rule="evenodd" d="M143.319 27.1113C143.1 26.4146 143.65 23.3079 144.213 19.8996C144.457 18.4513 144.702 17.0046 144.908 15.5313C145.06 14.2996 145.471 13.8246 146.275 13.8829C147.11 13.9363 147.459 14.6096 147.257 15.9146C146.891 18.3879 146.522 20.8263 146.283 22.3046C146.015 23.9913 145.844 24.7229 146.333 24.8696C146.578 24.9596 147.081 24.8029 148.163 24.3779C149.121 24.0063 149.961 23.8896 150.253 24.8079C150.45 25.3746 150.225 25.9829 149.709 26.2429C148.319 26.9913 145.478 28.1296 144.895 28.1996C144.121 28.3046 143.594 27.9313 143.319 27.1113Z" fill="#F3EEE7"/>
<path fill-rule="evenodd" clip-rule="evenodd" d="M152.239 25.4656C152.137 25.0156 152.303 22.3456 152.58 20.459C153.005 16.8506 153.185 13.199 154.484 12.899C154.889 12.7723 155.313 12.8756 155.678 13.164C156.245 13.6073 157.345 15.684 157.956 17.0623L158.508 18.184C158.775 18.6273 158.921 18.8323 159.269 18.7523C159.681 18.6556 159.695 17.979 159.883 16.5856C160.12 14.6723 160.422 12.7473 160.909 12.0956C161.095 11.884 161.295 11.7373 161.611 11.664C162.087 11.554 162.823 11.8573 162.958 12.6023C163.008 12.8273 162.971 13.1056 162.909 13.424C162.237 16.0756 162.133 17.2473 161.697 21.0956C161.609 21.8906 161.519 22.824 161.362 23.9056C161.278 24.4323 160.964 24.8073 160.519 24.9106C160.076 25.014 159.58 24.889 159.124 24.489C158.373 23.819 158.078 22.8056 156.125 18.8673C155.874 18.4873 155.36 18.5706 155.255 18.999C154.848 20.7473 154.652 23.2906 154.561 24.9656C154.509 25.9223 154.102 26.4873 153.4 26.4807C152.863 26.4706 152.374 26.0756 152.239 25.4656Z" fill="#F3EEE7"/>
<path fill-rule="evenodd" clip-rule="evenodd" d="M166.284 21.6979C165.976 20.6229 165.896 19.5162 165.815 18.4079C165.723 17.0295 165.728 12.6762 165.821 11.8245C165.958 10.1745 166.437 9.4862 167.674 9.18953C169.766 8.57453 172.056 7.9362 172.522 9.20453C173.159 10.5945 170.904 11.1195 169.104 11.3412C168.491 11.4529 168.175 11.6479 168.201 12.3262C168.231 12.9012 168.211 13.4195 168.231 13.9612C168.215 14.3779 168.493 14.6395 168.948 14.5745C170.328 14.3062 171.196 13.9129 171.64 14.9829C172.13 16.4512 170.516 16.6162 168.999 17.2329C168.384 17.4479 168.211 17.6712 168.218 18.2845C168.234 18.6912 168.299 19.1545 168.353 19.5812C168.467 20.0979 168.798 20.3079 169.359 20.1429C171.329 19.5645 172.298 18.4579 172.996 19.8295C173.217 20.2445 173.105 20.7912 172.708 21.1812C172.281 21.5829 168.944 22.9395 168.537 23.0579C167.355 23.3045 166.619 22.8679 166.284 21.6979Z" fill="#F3EEE7"/>
<path fill-rule="evenodd" clip-rule="evenodd" d="M176.861 18.9912C176.458 18.4378 176.473 17.6995 176.922 17.2195C177.344 16.7512 177.85 16.7078 178.433 17.0895C179.123 17.5728 179.875 17.6478 180.679 17.2862C182.31 16.5195 181.837 14.4162 179.923 13.5028C179.029 13.1278 177.01 12.4995 176.443 12.0778C175.501 11.3712 175.236 10.5228 175.539 9.43283C176.145 7.63783 178.191 5.70449 180.351 4.88282C181.178 4.58116 181.748 4.72282 182.059 5.31116C182.423 5.94782 182.17 6.49449 181.187 7.13282C180.375 7.56782 179.561 8.00449 178.877 8.70782C177.79 9.83782 177.902 10.1462 179.281 10.6228C181.613 11.3495 182.936 12.4428 183.822 14.2545C184.644 15.9828 183.883 18.2195 182.147 19.2712C180.412 20.3228 177.703 20.1895 176.861 18.9912Z" fill="#F3EEE7"/>
<path fill-rule="evenodd" clip-rule="evenodd" d="M188.61 14.5934C188.16 14.0784 188.111 13.3401 188.519 12.8234C188.9 12.3201 189.399 12.2334 190.013 12.5634C190.743 12.9851 191.499 12.9951 192.271 12.5634C193.828 11.6567 193.18 9.6034 191.194 8.86174C190.273 8.56507 188.206 8.11341 187.607 7.74174C186.607 7.12007 186.269 6.29674 186.48 5.18507C186.931 3.3434 188.806 1.24007 190.891 0.233405C191.688 -0.138262 192.268 -0.0449286 192.627 0.511738C193.045 1.11507 192.836 1.68174 191.912 2.4034C191.138 2.90674 190.365 3.4134 189.744 4.1734C188.758 5.39174 188.895 5.69174 190.309 6.04674C192.694 6.5684 194.104 7.54341 195.14 9.27007C196.107 10.9217 195.539 13.2167 193.898 14.4151C192.26 15.6117 189.548 15.7151 188.61 14.5934Z" fill="#F3EEE7"/>
</svg>
