<svg width="23" height="24" viewBox="0 0 23 24" fill="none" xmlns="http://www.w3.org/2000/svg">
<g opacity="0.4518">
<mask id="mask0_2_129" style="mask-type:luminance" maskUnits="userSpaceOnUse" x="0" y="0" width="23" height="24">
<path d="M0 0.806152H22.6825V23.8529H0V0.806152Z" fill="white"/>
</mask>
<g mask="url(#mask0_2_129)">
<path fill-rule="evenodd" clip-rule="evenodd" d="M11.3023 21.7842C11.3023 21.768 11.3023 21.7527 11.3031 21.7374C12.2405 21.7374 13.1772 21.7584 14.1138 21.7317C15.056 21.7043 16.0054 21.6825 16.9389 21.5624C18.3585 21.3793 19.4419 20.6446 20.0597 19.2946C20.3944 18.5632 20.4983 17.7777 20.5237 16.9809C20.553 16.0688 20.5887 15.1567 20.5832 14.2438C20.5721 11.9551 20.5491 9.6648 20.507 7.37609C20.4936 6.62771 20.3357 5.89383 20.0058 5.21803C19.4014 3.97932 18.3783 3.29545 17.0658 3.09787C16.2124 2.96883 15.3423 2.92287 14.4787 2.91077C12.5252 2.88254 10.5718 2.87851 8.61921 2.90513C7.61434 2.91884 6.60076 2.95754 5.60621 3.09706C3.83997 3.34464 2.64476 4.48496 2.30214 6.25674C2.13638 7.114 2.09196 8.00432 2.07293 8.88093C2.03486 10.6503 2.042 12.4204 2.05072 14.1898C2.05707 15.518 2.02059 16.8511 2.24107 18.1672C2.44569 19.385 3.01672 20.3793 4.08821 21.018C4.83214 21.4608 5.65934 21.6366 6.50876 21.6656C8.10607 21.7188 9.70417 21.7463 11.3023 21.7842ZM22.6825 12.3084C22.6563 13.8463 22.6429 15.3834 22.6008 16.9204C22.5675 18.1463 22.3819 19.3454 21.8077 20.4479C20.9321 22.1317 19.5498 23.1382 17.7367 23.56C16.6383 23.8164 15.5168 23.8285 14.4001 23.8374C12.25 23.8559 10.0991 23.864 7.94983 23.8261C6.97748 23.8092 5.99165 23.7551 5.03755 23.5761C2.42269 23.0842 0.638206 21.1954 0.206758 18.4914C0.0647926 17.6027 0.0156201 16.6914 0.00848221 15.789C-0.0113454 13.2269 0.0061029 10.664 0.0251374 8.1019C0.0322753 7.23658 0.100482 6.37448 0.328896 5.53335C0.972896 3.16722 2.47424 1.69948 4.80914 1.1019C5.78783 0.851093 6.7911 0.820448 7.78883 0.814803C10.2855 0.79948 12.7822 0.805125 15.2789 0.826899C16.4384 0.836577 17.5924 0.933351 18.69 1.36964C20.4809 2.08013 21.6475 3.37932 22.2273 5.23496C22.5025 6.1148 22.5969 7.02287 22.6088 7.93658C22.6278 9.39303 22.6143 10.8511 22.6143 12.3084C22.6373 12.3084 22.6595 12.3084 22.6825 12.3084Z" fill="white"/>
</g>
<path fill-rule="evenodd" clip-rule="evenodd" d="M9.15844 16.2937C9.15844 15.0929 9.15447 13.8921 9.16161 12.6913C9.16319 12.4534 9.0823 12.3631 8.84516 12.3744C8.51523 12.3889 8.18371 12.3703 7.85299 12.3768C7.68088 12.38 7.59126 12.3284 7.59283 12.134C7.5984 11.3897 7.59761 10.6453 7.59283 9.90098C7.59126 9.70744 7.67216 9.62518 7.85775 9.6276C8.1734 9.63002 8.48826 9.6276 8.80313 9.62518C9.14575 9.62276 9.15447 9.61389 9.15844 9.25582C9.16557 8.71953 9.16081 8.18244 9.17747 7.64695C9.19571 7.07598 9.26471 6.51228 9.5304 5.99453C9.93171 5.2155 10.6027 4.77034 11.4243 4.68082C12.4466 4.56953 13.4816 4.58969 14.5111 4.55179C14.665 4.54615 14.7189 4.62679 14.7189 4.77357C14.7173 5.56631 14.7165 6.35905 14.7197 7.15179C14.7205 7.33324 14.6102 7.35905 14.4714 7.35905C14.0693 7.35986 13.6688 7.35905 13.2667 7.36308C13.1168 7.36469 12.9669 7.36873 12.8194 7.38889C12.5521 7.42598 12.411 7.55179 12.3951 7.82195C12.365 8.36469 12.3642 8.90905 12.3483 9.4534C12.3451 9.62195 12.457 9.61792 12.572 9.62034C13.1541 9.63002 13.7362 9.63405 14.3192 9.65502C14.6729 9.66711 14.7062 9.69615 14.6824 10.0502C14.6356 10.7284 14.5634 11.4042 14.5103 12.0816C14.4952 12.2768 14.3993 12.3349 14.22 12.3365C13.7077 12.3421 13.1969 12.359 12.6846 12.3744C12.3634 12.384 12.3491 12.397 12.3491 12.7171C12.3475 14.9026 12.3483 17.0889 12.3475 19.2744C12.3475 19.4986 12.338 19.7228 12.3451 19.947C12.3515 20.184 12.2373 20.2784 12.016 20.2784C11.4093 20.2776 10.8033 20.2808 10.1974 20.2824C9.97613 20.2833 9.75644 20.2824 9.53595 20.2833C9.20681 20.284 9.15844 20.2437 9.15685 19.9203C9.15209 19.151 9.15288 18.3832 9.15209 17.6147V16.2937H9.15844Z" fill="white"/>
</g>
</svg>
