<svg width="1440" height="12" viewBox="0 0 1440 12" fill="none" xmlns="http://www.w3.org/2000/svg">
<path d="M144 0H0V12H144V0Z" fill="#CDDBE3"/>
<path d="M719 0H575V12H719V0Z" fill="#CDDBE3"/>
<path d="M288 0H144V12H288V0Z" fill="#E7E1D9"/>
<path d="M432 0H288V12H432V0Z" fill="#E8D0CD"/>
<path d="M576 0H432V12H576V0Z" fill="#A6C3D2"/>
<path d="M863 0H719V12H863V0Z" fill="#E7E1D9"/>
<path d="M1008 0H862V12H1008V0Z" fill="#E8D0CD"/>
<path d="M1152 0H1008V12H1152V0Z" fill="#A6C3D2"/>
<path d="M1296 0H1152V12H1296V0Z" fill="#CDDBE3"/>
<path d="M1440 0H1296V12H1440V0Z" fill="#E7E1D9"/>
</svg>
