<svg width="22" height="24" viewBox="0 0 22 24" fill="none" xmlns="http://www.w3.org/2000/svg">
<g opacity="0.4518">
<mask id="mask0_2_119" style="mask-type:luminance" maskUnits="userSpaceOnUse" x="0" y="0" width="22" height="24">
<path d="M0.000213623 0.800293H21.5023V23.4853H0.000213623V0.800293Z" fill="white"/>
</mask>
<g mask="url(#mask0_2_119)">
<path fill-rule="evenodd" clip-rule="evenodd" d="M19.5961 12.1395C19.5961 10.5011 19.5968 8.86349 19.5953 7.22509C19.5946 6.70669 19.5468 6.19469 19.3806 5.70189C18.773 3.89869 17.3012 2.81309 15.4411 2.81069C12.3141 2.80673 9.18628 2.80109 6.05924 2.82029C5.59117 2.82269 5.10186 2.89069 4.66035 3.04749C2.94055 3.65549 1.91262 5.22749 1.91035 7.18509C1.90579 10.4835 1.90807 13.7819 1.91035 17.0795C1.91035 17.5907 1.96345 18.0947 2.12883 18.5803C2.73497 20.3659 4.19379 21.4547 6.03117 21.4595C9.18021 21.4683 12.3285 21.4659 15.4768 21.4595C16.887 21.4571 18.0234 20.8619 18.8549 19.6547C19.3837 18.8883 19.5976 18.0155 19.5968 17.0755C19.5946 15.4299 19.5961 13.7851 19.5961 12.1395ZM5.50393 0.800293H16.0017C16.221 0.837093 16.4432 0.861093 16.6602 0.912293C19.0961 1.48989 20.6574 3.04509 21.3257 5.58349C21.4137 5.91469 21.4448 6.26109 21.5025 6.60109V17.6715C21.4888 17.7499 21.4805 17.8307 21.4615 17.9075C21.3166 18.4979 21.2476 19.1251 21.0086 19.6699C19.9382 22.1155 18.097 23.4227 15.5405 23.4603C12.3497 23.5075 9.15821 23.4739 5.96669 23.4707C4.73014 23.4691 3.58538 23.1179 2.57641 22.3595C0.867242 21.0747 0.0107596 19.3059 0.00544929 17.0931C-0.00289554 13.7875 -0.000619677 10.4811 0.00772515 7.17469C0.00924239 6.74909 0.0304838 6.31309 0.116208 5.89949C0.653311 3.33149 2.13566 1.69149 4.53745 0.985893C4.85152 0.893893 5.18152 0.860293 5.50393 0.800293Z" fill="white"/>
</g>
<path fill-rule="evenodd" clip-rule="evenodd" d="M14.3813 12.1338C14.3783 10.0218 12.7495 8.30576 10.7505 8.30896C8.74703 8.31296 7.12055 10.0306 7.12358 12.1386C7.12662 14.2506 8.75538 15.9666 10.7551 15.9634C12.7571 15.9602 14.3851 14.241 14.3813 12.1338ZM16.293 12.1338C16.2961 15.341 13.7911 17.9826 10.7498 17.9786C7.70317 17.9746 5.20124 15.3322 5.21183 12.1274C5.22248 8.91936 7.70241 6.30336 10.7445 6.29373C13.7828 6.28336 16.29 8.92176 16.293 12.1338Z" fill="white"/>
<path fill-rule="evenodd" clip-rule="evenodd" d="M16.6631 4.59641C17.2935 4.61561 17.8041 5.17081 17.7851 5.81721C17.7646 6.49881 17.2351 7.02681 16.5948 7.00441C15.9796 6.98201 15.4728 6.42121 15.4895 5.78201C15.5085 5.10921 16.0342 4.57801 16.6631 4.59641Z" fill="white"/>
</g>
</svg>
