<svg width="52" height="49" viewBox="0 0 52 49" fill="none" xmlns="http://www.w3.org/2000/svg">
<path fill-rule="evenodd" clip-rule="evenodd" d="M37.0166 19.111C39.7252 19.0957 41.4489 18.5047 42.472 17.3838C44.0902 15.6091 44.8182 13.4806 44.7585 11.098C44.7111 9.06757 43.9938 7.2852 42.576 5.8152C42.0912 5.31448 41.6431 4.69892 41.0482 4.40645C39.5295 3.66379 37.8563 3.45095 36.2106 3.79548C30.6589 4.95923 28.2057 11.2955 31.4725 15.9184C32.9912 18.0667 35.1431 18.9794 37.0166 19.111ZM37.2246 2.85376C37.8976 2.95942 38.6669 3.04363 39.4178 3.20901C40.6933 3.4877 41.715 4.23188 42.654 5.1047C44.6285 6.93914 45.6593 9.20845 45.5844 11.905C45.5232 14.0441 44.89 16.0332 43.535 17.7329C42.1249 19.4984 40.1963 20.2059 38.0123 20.2472C34.8785 20.31 32.5125 18.9579 30.4983 16.5171C27.285 12.6185 29.1998 4.29773 35.972 2.97779C36.3483 2.90429 36.7398 2.8997 37.2246 2.85376Z" fill="#DBC0BD"/>
<path fill-rule="evenodd" clip-rule="evenodd" d="M44.4023 44.3646C44.4023 45.3568 44.4176 46.075 44.3886 46.7916C44.3824 46.9463 44.2463 47.179 44.1194 47.2204C43.9848 47.2648 43.7263 47.1744 43.6346 47.055C43.5183 46.9034 43.4831 46.6661 43.4709 46.4624C43.3302 44.4289 43.217 42.3939 43.061 40.3634C42.9968 39.5427 42.8469 38.7281 42.7307 37.9134C42.7016 37.7037 42.6098 37.4985 42.6206 37.2948C42.6328 37.0881 42.7337 36.8875 42.7949 36.6838C42.9509 36.8262 43.191 36.9411 43.2476 37.1172C43.4893 37.866 43.7615 38.6193 43.867 39.3941C44.1041 41.1336 44.2478 42.8839 44.4023 44.3646Z" fill="#DBC0BD"/>
<mask id="mask0_2_557" style="mask-type:luminance" maskUnits="userSpaceOnUse" x="48" y="27" width="4" height="20">
<path d="M48.4941 27.4546H51.9357V46.3257H48.4941V27.4546Z" fill="white"/>
</mask>
<g mask="url(#mask0_2_557)">
<path fill-rule="evenodd" clip-rule="evenodd" d="M51.3251 38.8287C51.0023 35.1782 50.6613 31.5338 49.2236 28.1054C49.1655 27.966 49.1456 27.8466 49.1625 27.7333C49.0829 27.6475 49.0126 27.5557 48.9545 27.4546C48.7832 27.4929 48.6241 27.5495 48.4941 27.646C48.5461 27.8206 48.5752 28.0028 48.5752 28.185C48.6409 28.1437 48.7082 28.1084 48.7725 28.0686C49.0692 29.3625 49.4775 30.5814 49.606 31.8294C49.8675 34.3651 49.9776 36.9162 50.1474 39.4596C50.2575 41.0766 50.3172 42.6967 50.4961 44.306C50.5619 44.8879 50.8785 45.456 51.1507 45.995C51.2348 46.1634 51.5514 46.217 51.7609 46.3257C51.8221 46.0868 51.9536 45.8434 51.9338 45.6137C51.7441 43.3505 51.5254 41.0904 51.3251 38.8287Z" fill="#DBC0BD"/>
</g>
<path fill-rule="evenodd" clip-rule="evenodd" d="M48.7815 28.1191C48.8595 28.0272 48.9558 27.9521 49.0598 27.8817C49.095 27.8373 49.1333 27.799 49.1745 27.7607C49.1898 27.6306 49.2388 27.505 49.3489 27.3703C50.1182 26.4224 50.3736 25.3138 50.0769 24.1424C49.6487 22.4626 48.3043 21.6863 46.3864 21.8011C44.1611 21.9343 41.9297 22.0492 39.7014 22.0645C36.4498 22.0875 33.1937 22.1166 29.9498 21.9527C26.4444 21.7736 22.9467 21.3892 19.4489 21.0722C16.5292 20.8089 13.6142 20.7537 10.7312 21.3509C6.67372 22.1901 3.65007 24.3522 2.1849 28.3702C1.94019 29.0439 1.82701 29.7636 1.6389 30.4588C0.785485 33.6162 0.416897 36.8502 0.115603 40.0904C-0.0128679 41.4716 0.0314851 42.8696 0.00548509 44.2584C-0.00216197 44.8036 -0.00369138 45.3471 0.023838 45.8892C0.0314851 46.0255 0.167603 46.1556 0.244073 46.2873C0.389367 46.1281 0.40925 46.0286 0.413838 45.929C0.499485 44.2079 0.488779 42.4745 0.684544 40.7656C1.06537 37.4474 1.47984 34.1338 2.30878 30.883C2.73549 29.2154 3.14384 27.5525 4.20525 26.1728C5.85396 24.0245 8.04101 22.7091 10.6991 22.1533C14.229 21.4137 17.7757 21.5883 21.301 22.0446C25.2668 22.5576 29.2417 22.8592 33.2335 22.9235C36.1883 22.9725 39.1416 22.9327 42.098 22.9251C42.4467 22.9235 42.7984 22.8822 43.1487 22.8577C44.3936 22.7765 45.6385 22.6295 46.8835 22.6249C49.2082 22.6157 49.8429 24.7335 48.9803 26.3428C48.5658 27.1161 47.9281 27.6735 47.116 27.9858C46.2809 28.3059 45.4336 28.6091 44.568 28.8311C40.3193 29.9183 35.9589 30.1189 31.6092 30.4251C30.2511 30.5201 28.9068 30.834 27.5594 31.0759C27.0837 31.1586 26.7472 31.4189 26.6371 31.9548C26.4108 33.0558 26.1324 34.1445 25.8847 35.2394C25.1368 38.5499 25.0588 41.9049 25.2851 45.2706C25.3325 45.978 25.5772 46.6793 25.7883 47.3653C25.9015 47.7328 26.2012 47.9457 26.6203 47.8002C26.9552 47.6808 27.0608 47.2581 26.8971 46.8462C26.7824 46.5553 26.6387 46.2613 26.6004 45.9551C26.4689 44.9291 26.3741 43.8971 26.2701 42.865C25.9168 39.2865 26.3098 35.7692 27.177 32.2978C27.2244 32.1049 27.4492 31.8476 27.6267 31.8155C28.8028 31.6072 29.982 31.399 31.1703 31.2918C34.3392 31.0101 37.5235 30.886 40.6771 30.4971C43.4607 30.1541 46.2518 29.6825 48.7723 28.0869C48.7754 28.0976 48.7784 28.1083 48.7815 28.1191Z" fill="#A4C1CF"/>
<path fill-rule="evenodd" clip-rule="evenodd" d="M16.8535 16.2578C19.559 16.2425 21.2827 15.6499 22.3074 14.5321C23.8934 12.8063 24.6183 10.7254 24.6045 8.40552C24.5923 6.32149 23.8796 4.47786 22.416 2.96346C21.9311 2.46427 21.4845 1.84564 20.8896 1.55318C19.3709 0.81052 17.6977 0.597676 16.0536 0.940676C10.5018 2.09983 8.04255 8.44074 11.3078 13.0605C12.8265 15.2104 14.9769 16.1215 16.8535 16.2578ZM17.063 0.000488281C17.7344 0.106145 18.5037 0.190363 19.2562 0.354207C20.5317 0.634426 21.5534 1.37861 22.4924 2.25143C24.4669 4.08586 25.4977 6.35364 25.4213 9.05171C25.3601 11.1909 24.7284 13.1784 23.3734 14.8781C21.9617 16.6436 20.0347 17.3511 17.8507 17.394C14.7154 17.4552 12.3509 16.1031 10.3367 13.6638C7.12184 9.76527 9.03666 1.44446 15.8104 0.122988C16.1867 0.0494883 16.5782 0.0448945 17.063 0.000488281Z" fill="#A4C1CF"/>
<mask id="mask1_2_557" style="mask-type:luminance" maskUnits="userSpaceOnUse" x="7" y="34" width="3" height="15">
<path d="M7.54808 34.7344H9.07749V48.1264H7.54808V34.7344Z" fill="white"/>
</mask>
<g mask="url(#mask1_2_557)">
<path fill-rule="evenodd" clip-rule="evenodd" d="M8.62097 34.7344C8.68367 35.6317 8.78309 36.4984 8.79838 37.3681C8.84579 40.4092 8.86873 43.4502 8.89473 46.4928C8.89779 46.7562 8.85803 47.0181 8.8412 47.2799C8.80144 47.8511 8.50167 48.1328 7.84709 48.1268C7.80732 47.9016 7.72626 47.6688 7.73085 47.4392C7.81497 43.9954 7.90979 40.5516 8.00309 37.1078C8.01685 36.5458 8.01073 35.9808 8.05661 35.4219C8.07956 35.131 8.1025 34.7757 8.62097 34.7344Z" fill="#A4C1CF"/>
</g>
</svg>
