<svg width="114" height="130" viewBox="0 0 114 130" fill="none" xmlns="http://www.w3.org/2000/svg">
<mask id="mask0_2_223" style="mask-type:luminance" maskUnits="userSpaceOnUse" x="0" y="0" width="114" height="130">
<path d="M0 0.443726H113.954V129.807H0V0.443726Z" fill="white"/>
</mask>
<g mask="url(#mask0_2_223)">
<path fill-rule="evenodd" clip-rule="evenodd" d="M67.325 72.5544C65.2452 74.0026 63.263 75.354 61.3299 76.7725C61.1284 76.9207 61.0435 77.6399 61.2035 77.8076C62.3753 79.0384 63.6236 80.1973 64.7945 81.3274C66.881 79.6476 68.769 78.128 70.635 76.6252C69.4349 75.1495 68.3541 73.8207 67.325 72.5544ZM2.85229 37.4056C2.73475 48.6193 5.19813 55.4157 9.29682 61.5159C14.7348 69.6096 22.5186 74.8088 31.6112 77.9829C36.8305 79.8055 42.2318 79.6334 47.6755 78.8809C54.8292 77.8919 60.8602 74.708 66.0905 69.8834C70.0535 66.2283 72.4802 61.5168 74.4005 56.5728C77.2037 49.3554 78.6672 42.0088 77.247 34.1343C75.1521 22.519 64.9739 9.56917 53.6592 5.92118C50.9488 5.04756 48.2026 4.28664 45.494 3.40681C42.3171 2.37524 39.0186 2.24391 35.7484 2.19733C30.6038 2.12323 25.8904 3.89531 21.459 6.35289C16.303 9.21289 12.4605 13.4612 9.5531 18.5494C5.56487 25.5281 2.93315 32.939 2.85229 37.4056ZM75.4274 74.6606C71.3261 78.0747 67.3568 81.3931 63.3699 84.6896C62.1491 85.6986 62.0559 85.8468 63.0907 87.0363C64.753 88.9455 66.527 90.7562 68.199 92.6582C75.735 101.234 83.2298 109.846 90.7869 118.403C93.4704 121.442 96.2947 124.355 99.0365 127.342C99.6847 128.049 100.361 128.177 101.288 127.914C104.249 127.073 107.001 125.782 109.488 123.998C110.28 123.429 111.011 122.488 111.3 121.568C111.7 120.295 111.784 118.877 111.754 117.528C111.736 116.757 111.395 115.852 110.9 115.259C108.635 112.544 106.263 109.918 103.93 107.26C96.3451 98.6183 88.7557 89.9797 81.1778 81.3318C79.2486 79.1307 77.3544 76.8985 75.4274 74.6606ZM63.7234 82.5431C62.5035 81.0133 61.3467 79.5274 60.1338 78.0885C59.984 77.911 59.4604 77.8462 59.2363 77.9665C51.8794 81.91 43.9807 82.7543 35.8562 81.9024C33.4171 81.6468 30.9453 80.9955 28.6605 80.0882C20.6535 76.9092 13.6041 72.2655 8.3318 65.3108C3.09708 58.4044 -0.156781 50.6407 0.0058238 41.8424C0.259452 28.125 5.35852 16.4933 15.8894 7.58323C20.813 3.41791 26.753 1.47678 33.175 1.03576C34.0463 0.975858 34.9 0.609373 35.7687 0.580977C37.7999 0.514868 39.8851 0.281045 41.8566 0.633776C45.6005 1.3033 49.3157 2.20842 52.9791 3.24398C60.8535 5.47084 66.9441 10.2666 71.8576 16.74C77.5126 24.1904 80.4523 32.577 80.2229 41.9228C80.086 47.5136 78.615 52.9044 76.4415 58.0707C74.3537 63.0329 71.8603 67.7453 67.9861 71.6182C69.1495 72.8162 70.206 73.9693 71.3508 75.0262C71.566 75.2249 72.2381 75.1894 72.5195 74.9969C73.242 74.5017 73.8195 73.7949 74.5371 73.2891C75.3342 72.7274 75.8339 72.9927 76.1167 73.9178C76.2259 74.2732 76.4389 74.63 76.6938 74.9015C85.2495 84.0259 93.8296 93.1281 102.375 102.263C105.672 105.786 108.89 109.385 112.153 112.94C114.228 115.202 114.461 118.781 113.102 121.557C111.115 125.613 107.492 127.328 103.638 128.825C102.966 129.087 102.263 129.269 101.59 129.525C100.061 130.107 98.7502 129.787 97.6543 128.593C94.0143 124.626 90.2806 120.74 86.7687 116.662C80.1019 108.921 73.5659 101.065 66.9711 93.2608C65.6212 91.6631 64.247 90.0862 62.8967 88.4894C62.6117 88.1526 62.3625 87.7821 62.1257 87.4086C60.8898 85.4608 60.9247 85.2722 62.6148 83.7313C62.9948 83.3852 63.3205 82.9783 63.7234 82.5431Z" fill="#02374E"/>
</g>
</svg>
