<svg width="127" height="110" viewBox="0 0 127 110" fill="none" xmlns="http://www.w3.org/2000/svg">
<path fill-rule="evenodd" clip-rule="evenodd" d="M51.856 84.7327C49.0431 86.8722 45.8653 88.2786 42.2651 88.5636C36.9723 88.9827 29.841 85.9914 26.9641 80.6272C24.0146 75.1278 23.6805 69.6459 26.5835 64.1314C29.3829 58.814 34.0759 56.1585 39.8056 55.3976C43.1179 55.7913 46.0827 56.4167 48.6891 58.1872C49.4484 58.7028 50.2733 59.1287 51.0119 59.6697C52.3533 60.6517 53.3736 61.9026 54.1599 63.3676C55.5645 65.9848 57.0117 68.6185 57.3316 71.5908C57.9026 76.8893 56.2229 81.4117 51.856 84.7327ZM79.8915 68.5838C79.7461 68.194 79.753 67.752 79.6508 67.343C79.1237 65.2389 78.605 63.1327 78.023 61.0433C77.9409 60.7482 77.5541 60.3688 77.2615 60.3234C74.7594 59.9369 72.2479 59.6079 69.7364 59.2832C67.8785 59.0429 67.8861 59.0543 67.3841 57.3175C66.9421 55.7888 66.2438 54.4375 64.8043 53.5424C64.5967 53.4137 64.4877 52.8336 64.5938 52.5604C65.6396 49.8653 66.6891 47.169 67.8563 44.5243C68.2216 43.6957 68.2209 43.3138 67.351 42.8915C64.5418 41.5284 61.7544 40.1187 58.9957 38.6601C58.2698 38.2764 57.8503 38.3501 57.3014 38.9283C56.0433 40.2535 54.7172 41.5173 53.4013 42.7885C52.9076 43.2659 52.1853 43.6024 51.8858 44.167C51.3431 45.189 50.684 44.9655 49.8356 44.7327C47.7937 44.1724 45.8559 43.1078 43.6064 43.454C43.3774 43.4894 42.9547 43.1547 42.8351 42.8962C41.7165 40.4749 40.6278 38.0408 39.5729 35.5927C39.3257 35.0195 39.0371 34.915 38.4402 35.0566C35.8458 35.6735 33.2489 36.2878 30.6309 36.7931C29.8064 36.9522 29.645 37.283 29.6618 38.0114C29.7206 40.5768 29.7217 43.1429 29.7552 45.7086C29.7632 46.2994 29.6425 46.7135 29.0082 47.0242C26.9521 48.0308 24.9092 49.0732 22.9321 50.2196C22.2632 50.6076 21.8124 50.7475 21.0731 50.4042C18.6063 49.2581 16.1024 48.1885 13.5883 47.1461C13.2986 47.026 12.6588 47.1325 12.5174 47.3475C10.8733 49.8492 9.29673 52.3931 7.69509 54.9223C7.27051 55.5928 7.54532 55.9211 8.12803 56.406C10.3625 58.2655 12.5109 60.2262 14.6843 62.1564C15.1562 62.5755 15.3139 63.0683 14.8915 63.6186C13.424 65.5332 13.0253 67.7438 13.1372 70.0603C13.1809 70.965 12.9231 71.3426 11.9958 71.6226C9.23602 72.4558 6.52422 73.4431 3.99999 74.2999C4.86079 77.6681 5.72195 80.8857 6.4806 84.1269C6.65181 84.8571 6.89391 85.0982 7.62893 85.0427C9.99503 84.8629 12.3669 84.7567 14.7309 84.5557C15.503 84.4899 15.9995 84.6619 16.2994 85.3857C17.1838 87.5237 18.4696 89.3746 20.4634 90.7832C20.1203 91.7183 19.8022 92.6326 19.4514 93.5345C18.687 95.5016 17.9061 97.463 17.1308 99.4258C16.8745 100.075 17.0464 100.528 17.7015 100.848C18.8182 101.394 19.9647 101.906 21.0062 102.572C22.7645 103.695 24.4508 104.927 26.3473 106.238C28.2321 104.387 30.1634 102.583 31.9759 100.67C32.7981 99.8024 33.5771 99.6615 34.6928 99.9651C36.3053 100.403 37.9716 100.941 39.6089 100.921C41.3966 100.9 41.5635 101.045 42.2364 102.814C43.0299 104.901 43.9202 106.951 44.761 109C48.1333 108.384 51.4845 107.771 54.9117 107.143C54.8655 106.459 54.8575 105.845 54.7779 105.24C54.4944 103.085 54.1963 100.933 53.8837 98.7818C53.7404 97.7938 54.1501 97.3807 55.1323 97.0807C56.3366 96.7128 57.4642 96.0702 58.5828 95.4694C59.3018 95.0832 59.9659 94.5858 60.617 94.0898C61.4549 93.4519 62.3546 93.3625 63.3226 93.6843C65.7879 94.5046 68.2627 95.3013 70.7077 96.1767C71.4729 96.451 71.8946 96.2779 72.2152 95.6049C72.5373 94.9302 72.8557 94.2518 73.2109 93.5938C74.3057 91.5656 75.417 89.5462 76.5083 87.5491C74.5529 85.7304 72.6809 83.799 70.5896 82.1341C69.6953 81.4225 69.6615 80.8467 69.8655 79.942C70.3471 77.7997 70.8866 75.6602 71.1766 73.4903C71.3435 72.2445 71.8001 71.4803 73.0189 71.1975C75.0062 70.7358 76.9939 70.2767 78.9911 69.8611C79.7548 69.7024 80.2241 69.4739 79.8915 68.5838Z" fill="#E0E9EF"/>
<mask id="mask0_2_406" style="mask-type:luminance" maskUnits="userSpaceOnUse" x="0" y="33" width="79" height="77">
<path d="M0 33.0478H78.7898V109.886H0V33.0478Z" fill="white"/>
</mask>
<g mask="url(#mask0_2_406)">
<path fill-rule="evenodd" clip-rule="evenodd" d="M73.765 86.7458C71.7976 84.9274 69.9144 82.9959 67.8103 81.3309C66.9106 80.6193 66.8766 80.0435 67.0814 79.1384C67.566 76.996 68.1088 74.8564 68.401 72.6868C68.5685 71.4405 69.0283 70.6763 70.2542 70.3935C72.2534 69.9321 74.254 69.473 76.2633 69.0571C77.0318 68.8983 77.5039 68.6698 77.1693 67.7797C77.0222 67.3899 77.0299 66.9479 76.9268 66.5392C76.3961 64.435 75.8749 62.3283 75.289 60.2388C75.2063 59.9442 74.8176 59.5644 74.5228 59.5193C72.0054 59.1327 69.4785 58.8034 66.9516 58.4787C65.0826 58.2384 65.0896 58.2502 64.5845 56.5133C64.1405 54.9841 63.4379 53.6327 61.9892 52.7376C61.7804 52.6089 61.6706 52.0292 61.7774 51.7556C62.8297 49.0607 63.8852 46.3643 65.06 43.7191C65.4279 42.8905 65.4268 42.5086 64.552 42.0866C61.7255 40.7234 58.921 39.3137 56.1447 37.8547C55.4147 37.471 54.993 37.5447 54.4403 38.1229C53.1745 39.4482 51.8406 40.712 50.5167 41.9836C50.0196 42.4607 49.2929 42.7972 48.9915 43.3619C48.4455 44.3839 47.7827 44.1604 46.9291 43.9276C44.8747 43.3672 42.9246 42.303 40.6614 42.6488C40.431 42.6842 40.0056 42.3498 39.8853 42.0909C38.7603 39.6699 37.6649 37.2357 36.6031 34.7871C36.3544 34.2143 36.064 34.1098 35.4635 34.2514C32.8536 34.868 30.2404 35.4827 27.6063 35.988C26.7768 36.1471 26.6144 36.4776 26.6312 37.2064C26.6908 39.7715 26.6916 42.3377 26.7256 44.9039C26.7329 45.4943 26.6115 45.9088 25.9736 46.2192C23.9054 47.2258 21.8499 48.2682 19.8603 49.4151C19.1873 49.8031 18.7338 49.9429 17.9899 49.5993C15.5083 48.4531 12.9884 47.3839 10.4593 46.3411C10.1678 46.2209 9.52407 46.3279 9.38179 46.5428C7.72755 49.0443 6.14096 51.5886 4.52988 54.1176C4.10269 54.7882 4.37882 55.1164 4.96547 55.6014C7.21368 57.4613 9.37521 59.422 11.5623 61.3524C12.0371 61.7712 12.1951 62.264 11.7708 62.8143C10.2943 64.7293 9.89273 66.9397 10.0057 69.2563C10.0496 70.1614 9.79032 70.5386 8.85695 70.8187C6.08025 71.6519 3.35219 72.6392 0.812121 73.4964C1.67783 76.8644 2.54463 80.0821 3.30794 83.3235C3.47983 84.0537 3.72415 84.2951 4.46368 84.2393C6.84392 84.0594 9.23074 83.9536 11.6092 83.7523C12.3856 83.6865 12.8852 83.8588 13.1866 84.5826C14.0768 86.7204 15.3708 88.5714 17.3762 89.98C17.0316 90.9151 16.7112 91.8296 16.3587 92.7314C15.5891 94.6986 14.8039 96.6601 14.0234 98.6234C13.7656 99.2724 13.9386 99.7252 14.5976 100.045C15.7215 100.591 16.8744 101.103 17.9226 101.769C19.6917 102.892 21.3887 104.125 23.2968 105.435C25.1928 103.585 27.1359 101.781 28.9595 99.8675C29.7872 98.9996 30.5703 98.8587 31.6931 99.1623C33.3151 99.6011 34.9921 100.138 36.6394 100.119C38.4377 100.098 38.6059 100.242 39.2833 102.012C40.0813 104.098 40.9774 106.149 41.8234 108.198C45.216 107.581 48.5874 106.968 52.0359 106.341C51.9899 105.656 51.9811 105.042 51.9013 104.437C51.6161 102.283 51.3162 100.13 51.002 97.979C50.8572 96.9909 51.2697 96.5782 52.2576 96.2778C53.47 95.9099 54.6042 95.2672 55.7292 94.6665C56.4534 94.2802 57.1212 93.7828 57.7759 93.2872C58.6196 92.6488 59.5245 92.5594 60.4988 92.8816C62.9793 93.7016 65.4689 94.4984 67.9288 95.3738C68.6987 95.6481 69.123 95.4754 69.4456 94.802C69.7692 94.1272 70.09 93.4492 70.4473 92.7908C71.5486 90.7625 72.6674 88.7434 73.765 86.7458ZM52.371 98.1563C52.6475 99.762 53.0004 101.673 53.2963 103.592C53.4397 104.52 53.5176 105.463 53.5475 106.401C53.5742 107.235 53.2396 107.73 52.2514 107.899C48.9846 108.46 45.7372 109.131 42.4857 109.775C41.0765 110.055 40.7642 109.86 40.284 108.536C39.4753 106.306 38.6286 104.089 37.7585 101.882C37.67 101.656 37.3317 101.425 37.0749 101.379C35.0945 101.021 33.1089 100.685 31.1159 100.404C30.7334 100.35 30.1844 100.438 29.9269 100.679C27.9889 102.494 26.0983 104.358 24.206 106.22C23.3275 107.084 23.0327 106.978 22.0393 106.297C19.8263 104.78 17.5151 103.4 15.2347 101.978C14.5102 101.526 13.6613 101.218 13.0538 100.654C12.7141 100.338 12.5363 99.5768 12.6618 99.1137C13.0077 97.8349 13.5158 96.5925 14.0282 95.3638C14.5665 94.0725 15.2099 92.8237 15.7453 91.532C15.8455 91.291 15.7629 90.8129 15.5767 90.6494C13.9587 89.2294 12.8223 87.5061 11.972 85.566C11.8557 85.3011 11.4036 85.0164 11.1052 85.0146C9.34668 85.0042 7.5882 85.0844 5.82935 85.1137C4.8371 85.1301 3.83972 85.158 2.85478 85.0693C2.60242 85.0461 2.244 84.6313 2.18109 84.3448C1.50776 81.273 0.904287 78.1868 0.237542 75.1142C-0.180865 73.1874 -0.225486 73.1692 1.62297 72.4114C3.76255 71.5349 5.91091 70.6756 8.08268 69.8814C8.65214 69.6736 8.77905 69.39 8.74357 68.8833C8.613 67.0366 8.93925 65.2553 9.64586 63.5492C9.91285 62.9034 10.3082 62.3083 10.6421 61.6957C8.51206 59.8176 6.30884 57.8986 4.13744 55.9468C3.51458 55.3872 3.39206 54.5893 3.71939 53.8752C4.584 51.9899 5.49397 50.121 6.4811 48.2951C6.99021 47.3538 7.71182 46.5242 8.32005 45.6327C8.80977 44.9132 9.43373 44.636 10.279 44.9933C12.7364 46.0318 15.1883 47.0835 17.6516 48.1084C18.4789 48.4524 19.2177 48.6026 20.1075 47.9507C21.6081 46.8507 23.2891 45.9896 24.8599 44.9772C25.116 44.8123 25.3314 44.3853 25.3339 44.0778C25.3526 41.7065 25.3065 39.3348 25.2963 36.9632C25.289 35.3182 25.4246 35.3482 27.0683 35.0754C29.6138 34.6523 32.1301 34.0519 34.6464 33.4736C37.4103 32.8382 36.9821 32.5843 38.2658 35.1412C39.3473 37.2943 40.3037 39.5076 41.3739 41.822C43.6429 41.3471 45.7851 42.1696 47.9817 42.8741C49.652 41.1268 51.3436 39.3949 52.9902 37.6233C54.5647 35.9297 55.0917 35.8296 57.1991 36.8627C59.3347 37.9098 61.4977 38.9029 63.6369 39.9424C64.5571 40.3898 65.452 40.8869 66.3496 41.3782C67.0481 41.7605 67.2025 42.3709 66.9135 43.0504C65.628 46.074 64.3164 49.0865 63.0766 51.9591C63.9002 52.8843 64.7824 53.646 65.3591 54.5872C65.9235 55.5087 66.1762 56.6127 66.588 57.6959C69.1237 57.8833 71.8222 58.1232 74.5264 58.262C75.5176 58.3124 76.2385 58.6128 76.4908 59.5583C77.268 62.4692 78.0452 65.3819 78.7229 68.3161C78.9716 69.3947 78.5331 69.9529 77.2998 70.2844C75.9268 70.6531 74.5085 70.8573 73.118 71.1677C72.2457 71.3626 71.3906 71.6301 70.523 71.8475C69.9978 71.9791 69.7539 72.2516 69.7846 72.8145C69.917 75.2501 69.3004 77.5656 68.6036 79.8754C68.5235 80.1408 68.8106 80.6404 69.0765 80.8567C70.9323 82.3715 72.8239 83.8445 74.7119 85.3211C75.7535 86.1357 75.7678 86.4987 75.1526 87.6169C73.7397 90.1849 72.374 92.779 71.0409 95.3877C70.2085 97.0167 68.9723 97.4326 67.2467 96.791C64.7677 95.8698 62.2397 95.072 59.7169 94.2706C59.3921 94.1672 58.9364 94.2799 58.6024 94.4261C58.123 94.6357 57.7042 94.9758 57.2518 95.2465C55.7135 96.168 54.1715 97.0835 52.371 98.1563Z" fill="#02374E"/>
</g>
<mask id="mask1_2_406" style="mask-type:luminance" maskUnits="userSpaceOnUse" x="63" y="0" width="64" height="63">
<path d="M63.321 0.240479H126.821V62.906H63.321V0.240479Z" fill="white"/>
</mask>
<g mask="url(#mask1_2_406)">
<path fill-rule="evenodd" clip-rule="evenodd" d="M70.0703 48.2866C71.8832 50.1525 73.6083 51.8603 75.2423 53.6488C75.7791 54.2359 76.1474 54.2032 76.7271 53.8079C78.1713 52.8233 79.674 51.919 81.0922 50.8998C81.7564 50.4225 82.2007 50.5398 82.8652 50.9067C84.1244 51.6025 85.441 52.2361 86.8036 52.6937C87.4604 52.9144 87.8203 53.1401 87.9282 53.7903C87.9922 54.1747 88.1377 54.5473 88.1951 54.9322C88.4431 56.6123 88.6783 58.2942 88.9061 59.9772C88.9961 60.6403 89.3325 60.942 90.0358 60.8941C90.9903 60.8286 91.9521 60.7494 92.9048 60.7969C94.5491 60.879 96.1882 61.0533 97.989 61.2023C98.5566 59.1543 99.1611 57.1559 99.6468 55.1302C99.8527 54.2734 100.294 53.8756 101.118 53.6416C102.482 53.2542 103.895 52.9083 105.132 52.2595C106.039 51.7851 106.586 51.8175 107.328 52.4309C108.792 53.6409 110.321 54.7738 111.79 55.9128C113.505 54.4735 115.157 53.0645 116.834 51.6843C117.946 50.7695 118.221 51.0168 117.094 49.5988C116.072 48.3125 115.004 47.0554 114.08 45.7036C113.784 45.2701 113.601 44.2701 113.847 44.0508C115.294 42.7602 115.803 40.9627 116.752 39.4086C117.089 38.8549 117.744 38.2951 118.361 38.1364C120.346 37.6241 122.375 37.2702 124.398 36.9156C125.047 36.8019 125.338 36.5581 125.304 35.9004C125.2 33.8779 125.105 31.8544 125.041 29.8308C125.026 29.3707 124.935 29.1393 124.418 29.0345C122.633 28.6723 120.879 28.1089 119.079 27.8969C117.95 27.7641 117.684 27.1542 117.404 26.3287C116.775 24.4798 116.136 22.6337 115.465 20.7991C115.211 20.1043 115.304 19.5024 115.802 18.9905C116.605 18.1661 117.433 17.3647 118.274 16.5785C118.821 16.0673 119.41 15.6 120.127 14.9869C118.564 13.4109 117.102 11.9086 115.595 10.4506C115.393 10.2547 114.909 10.1359 114.653 10.2321C112.64 10.9841 110.634 11.7574 108.665 12.6117C107.916 12.9367 107.438 12.814 106.936 12.2405C106.111 11.2998 105.082 10.5665 103.828 10.4481C102.982 10.3681 102.743 9.95594 102.638 9.31334C102.299 7.25162 101.91 5.19278 101.698 3.11738C101.609 2.23682 101.335 2.01938 100.499 2.07086C98.0804 2.21918 95.6568 2.28506 93.2394 2.4413C92.9348 2.4611 92.4766 2.77466 92.3906 3.04502C91.7795 4.97318 91.145 6.90494 90.7354 8.87954C90.5507 9.76874 90.177 10.0369 89.3837 10.2148C87.7834 10.5733 86.0883 10.6659 84.7029 11.7221C84.5464 11.8413 84.075 11.725 83.8548 11.572C82.2036 10.4214 80.5667 9.25034 78.9528 8.04974C78.4562 7.68002 78.0985 7.58462 77.6044 8.06738C76.568 9.07862 75.48 10.0387 74.4055 11.0118C72.5546 12.6891 72.559 12.6833 73.8515 14.7961C74.6045 16.0277 75.3864 17.2474 76.0403 18.5293C76.233 18.9059 76.1968 19.5676 75.9832 19.9431C75.0956 21.5011 74.061 22.9779 73.1668 24.5327C72.8721 25.0446 72.6051 25.297 71.9896 25.3481C69.878 25.5245 67.7696 25.7524 65.6675 26.0191C65.3588 26.0587 64.8575 26.4 64.8417 26.6283C64.6903 28.8084 64.6227 30.9943 64.5353 33.1788C64.5122 33.7599 64.8366 33.8938 65.3896 33.9928C67.5703 34.3841 69.7346 34.864 71.9077 35.2981C72.6991 35.4562 73.1204 36.0351 73.0418 36.6989C72.8117 38.6458 73.5146 40.2773 74.5087 41.8678C74.8853 42.4711 74.8385 43.0043 74.2548 43.6069C72.7946 45.1153 71.448 46.731 70.0703 48.2866ZM84.3705 10.0942C85.9716 9.56102 87.3478 9.02678 88.769 8.66138C89.4693 8.48102 89.6895 8.18402 89.8244 7.52234C90.1898 5.73026 90.663 3.95942 91.0949 2.18066C91.2938 1.35986 91.7923 0.850101 92.6711 0.787461C95.2534 0.602061 97.8354 0.401901 100.42 0.259701C102.426 0.149181 102.689 0.469941 102.898 2.42042C103.11 4.40042 103.432 6.36962 103.754 8.33594C103.799 8.61026 104.094 9.02894 104.321 9.06134C106.015 9.30326 107.215 10.2717 108.232 11.5047C110.23 10.5496 112.171 9.56642 114.169 8.70926C114.614 8.51846 115.459 8.5613 115.772 8.85578C117.588 10.5643 119.359 12.3287 121.022 14.1813C121.875 15.1306 121.693 15.8819 120.678 16.8348C119.573 17.8713 118.438 18.8757 117.299 19.8757C116.768 20.3416 116.783 20.7304 117.094 21.3888C117.748 22.773 118.248 24.2343 118.71 25.6951C118.879 26.2283 119.109 26.431 119.635 26.5041C121.406 26.751 123.17 27.0383 124.938 27.3043C126.057 27.4728 126.469 27.9279 126.514 29.0557C126.613 31.5012 126.709 33.9463 126.817 36.3911C126.878 37.7649 126.211 38.4903 124.878 38.7084C122.817 39.045 120.764 39.4399 118.73 39.9047C118.332 39.9958 117.932 40.4587 117.709 40.8479C116.899 42.2566 116.163 43.7067 115.34 45.2539C116.371 46.5568 117.551 48.0432 118.722 49.5369C118.903 49.768 119.057 50.0239 119.195 50.2835C119.644 51.1259 119.633 51.7674 118.746 52.4651C116.829 53.9717 115.029 55.6216 113.199 57.2329C112.253 58.0663 111.977 58.0638 111.015 57.2538C109.606 56.0658 108.17 54.9066 106.72 53.7665C106.54 53.6247 106.169 53.5761 105.947 53.6527C104.483 54.1578 103.022 54.6762 101.593 55.2673C101.241 55.4131 100.857 55.7983 100.749 56.1511C100.166 58.0537 99.6405 59.9747 99.1483 61.9025C98.9292 62.7604 98.5745 62.9872 97.6072 62.8821C95.4802 62.6517 93.3268 62.661 91.1838 62.5743C91.0854 62.5707 90.9855 62.5915 90.8861 62.5984C88.8132 62.7373 88.344 62.4508 87.9647 60.4517C87.655 58.8169 87.4838 57.1545 87.3141 55.4977C87.2512 54.8843 87.0069 54.6679 86.4163 54.4397C85.1023 53.931 83.834 53.2863 82.6048 52.5965C82.1338 52.3319 81.8281 52.2725 81.3684 52.5483C79.6967 53.5491 77.9848 54.4851 76.3288 55.51C75.6983 55.9006 75.3834 55.7634 74.9303 55.2461C73.1562 53.2207 71.3291 51.2397 69.5148 49.2481C68.986 48.6675 68.8657 48.1019 69.3945 47.4377C70.601 45.9214 71.7987 44.3964 72.9467 42.8376C73.1409 42.5741 73.1972 42.0867 73.1028 41.7637C72.6567 40.2384 72.0916 38.7459 71.6685 37.2148C71.5376 36.7421 71.414 36.4955 70.9108 36.3933C69.1572 36.0372 67.4207 35.593 65.6606 35.274C64.645 35.0904 64.0788 34.5616 63.7903 33.6274C63.1159 31.4458 63.3266 29.2206 63.4634 27.0066C63.6067 24.6886 63.6382 24.6601 65.9791 24.3689C67.6508 24.1612 69.3375 24.0733 71.0113 23.8825C71.7062 23.8033 72.2588 23.5582 72.5813 22.7734C73.0999 21.5119 73.8511 20.3452 74.441 19.1089C74.5738 18.8299 74.5701 18.3637 74.4202 18.0984C73.5969 16.6429 72.6951 15.2307 71.8463 13.7885C70.9711 12.301 71.0651 12.1887 72.359 11.0849C74.0127 9.67406 75.6062 8.19014 77.1678 6.67994C77.8217 6.04742 78.3443 5.88866 79.1338 6.46142C80.9222 7.7585 82.7625 8.98502 84.3705 10.0942Z" fill="#02374E"/>
</g>
<path fill-rule="evenodd" clip-rule="evenodd" d="M38.9436 83.9453C41.9994 83.9435 45.863 82.5888 48.6692 80.4455C52.6251 77.4244 54.3153 73.3936 53.6328 68.5992C53.3663 66.7288 52.4412 64.9213 51.6488 63.1561C51.0962 61.9261 50.4349 60.6603 49.5174 59.683C46.4334 56.3975 42.6403 54.4361 37.9538 54.4197C37.6578 54.4187 37.3523 54.4365 37.0666 54.5061C34.7337 55.0765 32.58 55.9998 30.5869 57.3488C25.869 60.5412 23.2631 66.5685 24.4821 72.0158C26.1927 79.6601 31.4139 83.4545 38.9436 83.9453ZM37.2954 53C40.621 53.3913 43.598 54.0128 46.2148 55.7723C46.9772 56.2848 47.805 56.7081 48.5466 57.2458C49.8937 58.2216 50.9181 59.4648 51.7076 60.9211C53.1178 63.5222 54.5704 66.1392 54.8919 69.0931C55.4649 74.3592 53.778 78.8534 49.394 82.1542C46.5699 84.2801 43.3794 85.6778 39.7651 85.9614C34.4508 86.3779 27.2913 83.4048 24.4029 78.074C21.4416 72.6082 21.1058 67.1602 24.0205 61.6799C26.8311 56.3957 31.5431 53.7563 37.2954 53Z" fill="#02374E"/>
<path fill-rule="evenodd" clip-rule="evenodd" d="M95.3286 43.6197C100.573 43.4217 103.894 41.3406 106.385 36.2363C108.156 32.6084 108.049 28.8715 105.424 25.8176C102.913 22.8974 99.837 20.6595 95.6409 20.4452C92.2672 20.2728 89.3717 21.037 87.181 23.6312C84.8423 26.4011 83.5824 29.563 84.0017 33.3763C84.6644 39.3993 90.5217 43.8128 95.3286 43.6197ZM95.2378 19.007C99.8747 18.8439 103.44 21.5334 106.214 25.0186C109.675 29.3665 109.744 34.2238 107.343 38.7178C104.314 44.3871 98.981 46.8256 92.9786 45.7534C89.1091 45.0615 86.0938 42.6924 84.1833 39.3288C81.6568 34.8819 81.1339 30.1814 83.6198 25.3689C85.9005 20.9543 89.4859 18.9162 95.2378 19.007Z" fill="#02374E"/>
</svg>
