<svg width="78" height="50" viewBox="0 0 78 50" fill="none" xmlns="http://www.w3.org/2000/svg">
<path fill-rule="evenodd" clip-rule="evenodd" d="M7.5103 16.701C5.42111 16.701 3.91061 15.5945 3.91061 13.4889C3.91061 11.3618 5.42111 10.2774 7.5103 10.2774C9.59998 10.2774 11.11 11.3618 11.11 13.4889C11.11 15.5945 9.59998 16.701 7.5103 16.701ZM7.5103 7C2.89642 7 0 9.45226 0 13.4889C0 17.504 2.89642 20 7.5103 20C12.1036 20 15 17.504 15 13.4889C15 9.45226 12.1036 7 7.5103 7Z" fill="white"/>
<path fill-rule="evenodd" clip-rule="evenodd" d="M21 14H57V10H21V14Z" fill="white"/>
<path fill-rule="evenodd" clip-rule="evenodd" d="M72.4719 6.84897C70.2657 6.84897 68.4378 7.74181 67.3902 9.32276V0H63V20H67.3902V12.4847C68.3263 10.9271 69.5747 10.2167 71.0228 10.2167C72.6948 10.2167 73.6088 11.1785 73.6088 12.829V20H78V12.5308C78 9.20817 76.0606 6.84897 72.4719 6.84897Z" fill="white"/>
<path fill-rule="evenodd" clip-rule="evenodd" d="M39.5005 46.0202C35.9017 46.0202 33.5978 43.8693 32.7641 41L30 42.2953C30.856 46.5532 34.5636 50 39.5005 50C44.4364 50 48.145 46.5532 49 42.2953L46.2359 41C45.4022 43.8693 43.1207 46.0202 39.5005 46.0202Z" fill="white"/>
</svg>
