<svg width="179" height="145" viewBox="0 0 179 145" fill="none" xmlns="http://www.w3.org/2000/svg">
<path fill-rule="evenodd" clip-rule="evenodd" d="M109.354 114.935C102.021 121.74 93.6344 123.984 84.4734 121.892C78.5564 120.541 73.0135 118.171 68.205 113.691C63.9396 109.718 59.9329 105.415 56.7486 100.111C56.5367 99.7586 56.3372 99.395 56.1446 99.0275C56.1118 98.9653 56.1398 98.8567 56.1398 98.5719C57.0645 99.2176 57.9083 99.8221 58.764 100.4C62.5203 102.938 66.3673 105.306 70.6524 106.142C74.2048 106.836 77.8102 107.313 81.4046 107.475C87.1379 107.735 92.8847 107.652 98.5606 106.386C106.891 104.529 114.295 100.443 120.325 93.1C120.523 92.8595 120.722 92.6208 120.93 92.393C120.982 92.336 121.071 92.3281 121.445 92.1691C121.158 94.1479 121.246 96.1691 120.576 97.7133C117.731 104.271 114.237 110.403 109.354 114.935Z" fill="#E8D0CD"/>
<mask id="mask0_2_258" style="mask-type:luminance" maskUnits="userSpaceOnUse" x="0" y="2" width="179" height="143">
<path d="M0 2.38916H178.887V144.863H0V2.38916Z" fill="white"/>
</mask>
<g mask="url(#mask0_2_258)">
<path fill-rule="evenodd" clip-rule="evenodd" d="M161.906 49.3876C160.144 47.05 158.383 44.7121 156.567 42.3014C159.919 43.5319 160.957 46.4245 161.906 49.3876ZM149.388 39.9275C153.335 39.8535 155.671 42.2738 157.621 45.4888C154.805 43.5862 152.083 41.7486 149.388 39.9275ZM147.06 43.7159C142.838 42.5647 138.637 41.4187 134.419 40.2683C134.989 40.2263 135.587 40.0769 136.151 40.1579C139.987 40.7081 143.598 41.9645 147.06 43.7159ZM120.607 43.8057C120.469 41.0906 120.599 38.5095 123.045 36.5908C125.749 34.4714 128.69 32.7918 131.789 31.3191C127.867 35.2906 123.357 38.7268 120.607 43.8057ZM119.304 45.2233C118.771 45.1716 118.237 45.0695 117.704 45.0765C115.769 45.1024 113.835 45.1646 111.899 45.2132C111.471 45.2233 110.963 45.388 110.625 45.2172C108.471 44.1299 106.178 43.8456 103.549 43.9678C105.5 42.2287 107.203 40.6946 108.927 39.1859C109.413 38.7605 110.02 38.9668 111.292 39.9358C110.051 40.7905 108.839 41.6263 107.626 42.4617C107.737 42.6256 107.848 42.7898 107.959 42.9541C109.134 42.2168 110.324 41.5006 111.478 40.7314C111.977 40.3984 112.401 40.0782 112.889 40.8015C112.04 41.5374 111.191 42.2729 110.343 43.008C110.443 43.1372 110.544 43.2665 110.644 43.3961C111.042 43.1486 111.459 42.927 111.834 42.6483C113.969 41.0621 113.966 41.0573 116.254 42.7193C115.897 43.1666 115.542 43.6103 115.188 44.0545C115.256 44.1242 115.324 44.1943 115.392 44.2635C115.84 43.8662 116.289 43.4684 116.922 42.9064C117.724 43.5556 118.579 44.2477 119.434 44.9403C119.391 45.0341 119.347 45.1287 119.304 45.2233ZM118.285 47.6191C118.309 48.0593 118.354 48.4992 118.354 48.939C118.348 59.6449 118.365 70.3508 118.307 81.0567C118.295 83.3184 118.025 85.5802 117.827 87.8375C117.795 88.1981 117.588 88.6081 117.335 88.8744C111.633 94.865 104.858 99.0507 96.772 100.979C92.7775 101.931 88.7117 102.316 84.6096 102.43C78.6825 102.595 72.7322 102.744 66.9289 101.408C63.7064 100.666 60.6144 99.3245 57.504 98.1457C56.0243 97.5849 54.6584 96.7312 53.2045 96.0938C52.5297 95.7972 52.2395 95.3894 52.1817 94.6749C51.8977 91.1476 51.3734 87.6259 51.3209 84.0964C51.1883 75.184 51.2609 66.2671 51.2557 57.3525C51.2552 56.9714 51.2959 56.5911 51.3169 56.2104C53.5468 60.6603 55.5057 65.1212 57.999 69.306C58.1334 69.2416 58.2664 69.1776 58.4003 69.1133C56.1552 64.3594 53.91 59.605 51.5813 54.6737H54.0054C54.0273 58.1068 58.8095 65.7826 61.5799 66.6872C58.7492 63.1078 56.0278 59.4653 54.3792 54.76C55.5136 55.0005 56.3425 55.1521 57.1535 55.3694C57.322 55.4145 57.5154 55.6909 57.5443 55.8836C58.0283 59.0706 59.8074 61.7196 61.144 64.5468C61.9081 66.1629 62.8036 67.718 63.6793 69.278C63.899 69.67 64.2688 69.9771 64.699 70.4717C64.7778 70.042 64.8159 69.8339 64.8566 69.6148C65.0483 69.6674 65.2304 69.7169 65.5306 69.7993C65.4221 69.4777 65.3573 69.228 65.2553 68.9945C63.892 65.861 62.4959 62.7416 61.1737 59.5914C60.8306 58.774 60.7125 57.862 60.4761 56.9346C62.2705 57.0638 63.2228 58.0626 63.6198 59.4771C64.4133 62.3053 65.3708 65.0887 66.2882 67.881C66.5735 68.7483 66.8667 69.6315 67.3009 70.4283C68.399 72.4434 69.5789 74.4134 70.8472 76.3768C70.1465 72.0295 69.2336 67.7149 69.2388 63.2909C70.7023 63.262 71.4048 64.0172 71.2118 65.3253C70.733 68.5709 71.1899 71.7487 71.8862 74.9071C71.972 75.2974 72.2262 75.651 72.5724 75.9817C72.1365 72.3931 71.5553 68.8421 71.6831 65.1431C73.2398 66.0963 73.4438 66.6325 73.1698 68.2056C72.5724 71.6352 72.9869 75.0355 73.5777 78.4213C73.6254 78.6977 73.828 78.947 73.9593 79.2089C74.0561 79.187 74.1528 79.1656 74.2499 79.1437C74.0998 77.6358 73.9987 76.1214 73.7843 74.6233C73.6145 73.4322 73.8657 72.5157 75.1357 71.9011C75.1821 75.5248 75.0613 79.1152 76.1419 82.6193C75.966 80.9419 76.8356 79.7105 77.7464 78.2745C78.0925 80.4859 78.4129 82.5321 78.7333 84.5783H79.2195C79.1355 83.0985 78.5529 81.4466 80.2195 80.7444C81.2857 81.9928 81.4467 83.8621 82.9085 84.8512C83.0275 84.7864 83.1452 84.7211 83.2643 84.6563C82.771 83.495 82.2778 82.3341 81.785 81.1732C82.7802 82.2907 83.0577 83.8568 84.4079 84.6887C83.828 82.604 81.4436 80.9353 83.2468 78.1374C84.3711 79.9589 85.4215 81.6612 86.4727 83.3636L86.7029 83.3438C86.7029 83.0407 86.8202 82.6635 86.6841 82.4462C85.6381 80.7759 86.3257 79.0578 86.4653 77.3507C86.6749 74.7779 86.8583 72.2029 87.0417 69.628C87.0592 69.3778 86.9983 69.1216 86.7292 68.8552C86.4123 71.3759 86.0955 73.8965 85.7668 76.5109C84.1278 75.2869 84.1278 75.2869 84.5961 73.8168C84.8004 73.8698 85.0061 73.9232 85.365 74.0165C84.3628 72.9433 84.4761 71.9331 85.1103 70.8909C86.3379 68.8736 87.5541 66.8502 88.9122 64.8736C89.3512 69.6591 88.7503 74.3819 88.5279 79.1112C88.6404 79.1594 88.7529 79.2076 88.8654 79.2562C89.0588 78.908 89.3844 78.5746 89.4247 78.2097C89.9039 73.8216 90.3862 69.43 89.7065 65.0173C89.4973 63.6576 90.289 62.1419 91.9044 61.1856C91.9941 65.9425 91.5171 70.5269 91.0667 75.1126C91.1836 75.1546 91.3005 75.1971 91.4169 75.2396C91.6318 74.6846 91.9407 74.1462 92.0401 73.571C92.2497 72.3589 92.4707 71.1288 92.4707 69.9057C92.4703 67.0526 92.4672 64.1885 92.2173 61.3507C92.0782 59.7732 93.2353 59.2844 93.9745 58.3684C94.3224 62.7718 93.6152 67.0583 92.8025 71.3364C92.936 71.3859 93.0695 71.4346 93.2029 71.4836C93.4489 71.0013 93.8227 70.544 93.9216 70.0328C94.6507 66.2842 95.326 62.5291 94.6993 58.6807C94.4581 57.1965 95.0525 56.5061 96.9996 56.051C97.0512 61.4291 95.9768 66.6058 94.8813 72.0807C95.2932 71.7294 95.5142 71.6216 95.6122 71.4451C98.1418 66.9221 100.735 62.4262 102.095 57.3661C102.68 55.1884 103.2 52.9937 103.782 50.8157C103.866 50.5042 104.072 50.1406 104.331 49.9768C105.196 49.4309 106.112 48.9648 107.319 48.2955C107.187 49.2228 107.221 49.9071 106.988 50.4814C105.31 54.5984 103.579 58.6934 101.858 62.7924C101.694 63.1831 101.476 63.5511 101.142 64.2078C101.701 63.9397 101.98 63.8052 102.305 63.6493V64.5276C102.382 64.5727 102.458 64.6174 102.535 64.6621C102.9 64.2297 103.363 63.8477 103.613 63.3562C105.841 58.9624 108.044 54.5554 110.22 50.1353C110.514 49.5391 110.788 48.847 110.777 48.2039C110.756 46.9615 111.499 46.6917 112.457 46.5379C113.035 46.4451 113.61 46.3373 114.52 46.1783C114.219 47.1284 114.081 47.8951 113.748 48.5649C111.865 52.352 109.673 55.9428 106.849 59.1166C106.526 59.4793 106.227 59.8635 105.918 60.2385L106.182 60.5372C106.71 60.1824 107.319 59.9055 107.754 59.4591C110.615 56.528 112.845 53.1479 114.513 49.42C114.947 48.4488 114.988 47.3015 115.243 46.0731C115.869 46.0337 116.719 45.9798 117.928 45.9027C115.262 51.9209 112.458 57.5807 109.76 63.2883C109.864 63.3619 109.968 63.4359 110.072 63.5095C110.444 63.0097 110.904 62.5528 111.172 62.0017C113.399 57.4287 115.591 52.8391 117.791 48.253C117.891 48.0458 117.968 47.828 118.285 47.6191ZM119.697 93.4833C121.533 94.7734 123.48 95.1029 125.677 94.7765C126.173 107.95 124.534 120.906 123.446 133.998C119.525 132.594 115.85 131.01 111.54 131.624C115.859 119.136 117.45 106.341 119.697 93.4833ZM105.536 110.446C98.2731 116.044 89.9656 117.889 80.8926 116.169C75.0316 115.057 69.5412 113.107 64.7783 109.422C60.554 106.154 56.5854 102.614 53.4312 98.2508C53.2212 97.9608 53.0238 97.662 52.8325 97.3598C52.8001 97.3085 52.8281 97.2192 52.8281 96.9848C53.7442 97.5157 54.5801 98.0134 55.4274 98.4891C59.1479 100.576 62.9585 102.525 67.2024 103.212C70.7207 103.783 74.2924 104.175 77.8523 104.309C83.5317 104.523 89.2238 104.454 94.845 103.413C103.096 101.885 110.43 98.5242 116.403 92.4837C116.599 92.2857 116.796 92.089 117.002 91.9019C117.054 91.8546 117.142 91.848 117.511 91.7175C117.228 93.3453 117.315 95.0082 116.651 96.2782C113.833 101.673 110.373 106.717 105.536 110.446ZM56.9622 126.831C53.352 126.481 50.2556 127.71 46.915 128.954C46.1413 118.825 44.8125 108.834 45.0099 98.748C47.9124 98.4418 47.9124 98.4418 50.4771 96.9607C52.2154 107.014 53.5669 117.019 56.9622 126.831ZM50.2307 53.8659C51.0732 53.1462 51.7318 52.5841 52.4299 51.9879C52.9065 52.419 53.2684 52.7475 53.6308 53.0756C53.6772 53.0371 53.7236 52.999 53.77 52.9604C53.5428 52.6253 53.3166 52.2902 53.0934 51.9603C54.861 49.5107 56.2353 51.6375 57.7185 52.4571C57.7942 52.3445 57.8699 52.2319 57.9461 52.1193C57.2738 51.506 56.6016 50.8928 55.9298 50.2795C56.5246 49.8265 56.5149 49.8401 57.9421 50.7885C58.5828 51.2147 59.2682 51.5735 59.9339 51.963C60.0162 51.8315 60.0984 51.7006 60.1803 51.5691C59.1982 50.8954 58.217 50.2212 57.2051 49.5269C58.6463 48.4431 58.7312 48.4667 59.8744 49.5032C61.0696 50.5861 62.3073 51.6221 63.4732 52.9416C63.0627 52.9416 62.6465 52.8973 62.2429 52.9504C61.1847 53.0897 60.0481 53.0761 59.0993 53.4861C57.936 53.989 56.8458 53.9772 55.6449 53.8948C53.9582 53.7792 52.2575 53.8659 50.2307 53.8659ZM53.0675 49.9531C52.1559 50.6181 51.4377 51.1416 50.6854 51.6905C50.7187 50.1472 50.7694 50.1091 53.0675 49.9531ZM52.7717 45.6193C53.756 43.7163 54.8759 41.8839 55.914 40.0086C56.2064 39.4798 56.5228 39.3694 57.1513 39.4505C58.5229 39.6274 59.9177 39.6283 61.3037 39.6875C61.8044 39.7089 62.3073 39.691 62.8587 39.691C62.4788 40.642 62.4784 40.6398 59.8984 41.332C58.789 41.6294 57.6826 41.9395 56.6073 42.428C57.5347 42.2703 58.4625 42.1126 59.5094 41.9343C59.466 42.2598 59.4319 42.5068 59.3986 42.7526C58.9212 43.3195 58.287 43.7286 58.1364 44.5991C58.0721 44.9705 57.3754 45.3481 56.8953 45.508C55.7442 45.8913 54.5508 46.1472 53.4255 46.6882C54.672 46.4359 55.9184 46.1835 57.1648 45.9303L57.413 46.2383C57.0532 46.7469 56.8042 47.4807 56.3132 47.7225C54.7687 48.4821 53.1332 49.0564 51.5331 49.703C51.4233 49.5899 51.313 49.4774 51.2027 49.3643C51.7191 48.1132 52.152 46.8179 52.7717 45.6193ZM57.3635 47.2756C57.3228 46.0193 58.1382 45.6119 59.0813 45.296C58.1592 44.7221 58.42 44.1461 59.7978 43.3909C59.6717 43.1674 59.5474 42.9467 59.4231 42.7254C59.4196 42.7294 59.4166 42.7325 59.4135 42.736C59.9829 41.8191 60.7282 41.2163 62.2364 41.3793C60.3046 43.2397 60.3763 46.3649 57.3635 47.2756ZM62.3764 48.6253C63.4828 49.7043 64.664 50.7096 65.8391 51.7146C66.1468 51.9778 66.5556 52.1228 66.9171 52.3217L67.1044 52.0703C65.4824 50.633 63.8605 49.1961 62.207 47.7308C63.6714 46.7679 63.7988 46.8297 64.9262 47.8364C66.6138 49.342 68.3635 50.7797 70.101 52.228C70.3907 52.4689 70.7557 52.6179 71.0866 52.8097C71.1522 52.7256 71.2174 52.642 71.2835 52.5583C69.1294 50.7166 66.9753 48.8755 64.7546 46.9769C66.507 46.1507 66.6926 46.2598 67.7976 47.4811C69.4222 49.2763 71.1452 50.9826 72.8232 52.7291C73.0897 53.0069 73.3409 53.2999 73.7151 53.7139C70.6069 53.4515 67.7276 53.2128 64.8487 52.9591C64.6238 52.939 64.3559 52.8733 64.1957 52.7304C62.6596 51.3619 61.1431 49.9719 59.6113 48.5798C60.9449 47.5306 61.3116 47.5867 62.3764 48.6253ZM64.5349 42.5143C64.5888 42.5669 64.6426 42.619 64.6964 42.6716C64.1931 43.3769 63.6903 44.0821 63.187 44.787L61.4967 45.7573L61.2661 45.462C62.3554 44.4795 63.4447 43.4969 64.5349 42.5143ZM78.1319 37.8138C76.8054 38.9248 75.6793 40.2416 74.2548 40.9797C71.5702 42.3702 68.7132 43.4277 65.8934 44.5373C67.198 42.8472 75.1668 38.5283 78.1319 37.8138ZM75.7476 41.9347C76.8422 41.1318 77.9372 40.3288 79.0313 39.5258C78.3004 41.837 78.0755 42.0044 75.7476 41.9347ZM83.4323 37.2925C82.2056 39.4951 79.7639 42.1297 78.795 42.1305C80.0554 40.196 80.5556 37.7481 83.4323 37.2925ZM84.519 37.1637C84.9532 36.6271 85.7738 36.4046 86.4184 36.0384L86.7979 36.4313C86.527 37.0678 86.309 37.7337 85.9747 38.3351C85.186 39.7514 84.3208 41.1243 83.5308 42.5397C83.1571 43.2086 82.7509 43.5372 81.9342 43.273C81.4629 43.1201 80.9198 43.1915 80.1469 43.1473C80.5714 42.6019 80.9084 42.1998 81.2113 41.774C82.3084 40.2324 83.3304 38.6304 84.519 37.1637ZM88.2124 35.8574C88.8654 35.7313 89.5477 35.7597 90.3424 35.7177C89.7748 37.3845 85.2753 43.2213 83.8127 44.0414C84.1357 43.4281 84.3068 43.072 84.505 42.7311C85.6596 40.7449 87.0242 38.8634 87.373 36.4931C87.4106 36.2368 87.8929 35.9196 88.2124 35.8574ZM108.294 47.9503C108.86 47.6379 109.497 47.4557 110.106 47.2213C110.215 47.3102 110.323 47.3992 110.433 47.4881C109.183 50.1813 107.933 52.8741 106.683 55.5674C106.579 55.503 106.477 55.4386 106.373 55.3742C106.659 54.6045 107.048 53.8554 107.208 53.0603C107.494 51.644 107.624 50.1975 107.86 48.7699C107.909 48.4733 108.065 48.0773 108.294 47.9503ZM100.489 50.0512C99.9432 50.3618 99.3668 50.6934 98.7638 50.8161C94.7207 51.6362 90.9543 53.2005 87.2767 55.0053C85.4595 55.8968 83.6393 56.7931 81.8922 57.8111C80.8751 58.4038 80.0423 58.2934 78.9722 57.5728C86.3541 53.3078 93.5675 49.0073 102.284 48.1014C100.174 47.2862 97.4083 47.8929 88.7594 51.0154C88.524 50.711 88.2697 50.3824 87.8356 49.8204C88.7021 49.7262 89.3253 49.6587 90.0689 49.5781C90.1604 49.4857 90.3525 49.13 90.633 49.0336C96.144 47.1425 101.794 45.9636 107.636 45.8107C107.817 45.8059 108 45.8475 108.496 45.9027C106.93 46.6041 105.616 47.1192 104.372 47.7711C103.045 48.4667 101.794 49.3096 100.489 50.0512ZM99.341 60.2989C99.8036 58.056 100.49 55.8298 99.9879 53.4844C99.9375 53.2482 100.118 52.8487 100.321 52.691C101.158 52.0392 102.046 51.4504 103.064 50.93C101.988 55.694 100.181 60.1745 98.2946 64.6402C98.6465 63.1941 99.0399 61.7559 99.341 60.2989ZM97.4342 55.2423C97.4202 55.0439 97.4928 54.7587 97.6324 54.6439C98.1699 54.201 98.7502 53.8116 99.5861 53.2057C99.552 57.1238 98.4465 60.4908 97.3611 63.814C97.5068 62.4362 97.762 61.0598 97.7681 59.6821C97.7751 58.2028 97.5388 56.7234 97.4342 55.2423ZM81.5417 61.982C80.8568 61.4545 80.1587 60.917 79.469 60.3861C81.4581 58.739 95.3807 51.7019 97.73 51.6383C96.024 53.2294 94.2332 54.9037 92.4344 56.5697C92.2926 56.7011 92.1044 56.7878 91.9272 56.8745C88.4413 58.5913 84.9532 60.305 81.5417 61.982ZM87.555 61.4401C85.8346 62.1204 84.2367 63.138 82.6459 64.1092C81.964 64.5258 81.5067 64.496 80.8384 63.7391C84.0853 61.9198 87.2679 60.1373 90.451 58.3543L90.6313 58.6645C89.917 59.9327 89.005 60.8666 87.555 61.4401ZM81.8288 68.0312C81.3776 67.7522 80.9977 67.5169 80.3605 67.1222C82.8945 65.437 85.2337 63.8805 87.573 62.3241C87.685 62.4708 87.797 62.6172 87.9095 62.7639C86.2574 64.8955 83.6604 65.9741 81.8288 68.0312ZM83.449 68.9902C83.3693 69.0432 83.0511 68.7391 82.7317 68.5258C83.775 67.6085 84.7239 66.7735 85.6736 65.9377C85.362 67.3132 84.5352 68.2638 83.449 68.9902ZM83.8936 76.2467C85.6547 77.5526 85.7331 77.7344 85.2805 79.3531C83.831 78.1725 83.4472 77.3493 83.8936 76.2467ZM81.4375 70.5335C81.1487 70.5335 80.9347 70.2973 80.922 70.0179C80.9097 69.7388 81.1679 69.5018 81.4375 69.5018H83.3452C83.6341 69.5018 83.8485 69.7379 83.8608 70.0179C83.8735 70.2965 83.6148 70.5335 83.3452 70.5335H81.4375ZM79.2886 75.7797C80.2935 77.5184 80.1316 79.7845 78.9722 80.9406C78.1407 78.7691 78.2243 77.0392 79.2886 75.7797ZM77.6207 69.6293C78.5044 68.7694 78.9074 69.6516 79.6453 69.9224C78.5753 70.9834 78.2632 69.9092 77.6207 69.6293ZM77.584 73.9101C78.0387 75.7162 77.2531 77.1851 76.2968 78.6535C75.7809 76.1832 75.7174 74.9763 77.584 73.9101ZM64.3183 58.7893C65.0908 59.3339 65.8693 59.8705 66.6295 60.4321C66.7324 60.5083 66.8033 60.7221 66.7836 60.8561C66.3052 64.0724 67.4313 67.0491 68.1412 70.088C68.1543 70.1445 68.1009 70.2167 67.9679 70.604C66.5652 66.5909 65.2509 62.8323 63.9371 59.0732C64.0636 58.979 64.1909 58.884 64.3183 58.7893ZM59.9282 54.7088C65.7004 54.5567 71.1457 55.8587 76.5025 57.823C76.2106 58.6316 75.7655 58.6509 75.0281 58.4196C72.5357 57.6372 70.024 56.9065 67.4921 56.2626C66.7429 56.072 65.9039 56.2332 65.1017 56.33C68.3272 56.7344 71.3662 57.72 74.3077 59.022C74.7384 59.2125 75.0613 59.6475 75.2832 60.1495H77.1564C75.9599 61.4598 75.9795 61.4028 74.7025 60.9613C72.4543 60.1841 70.1763 59.4968 67.9202 58.7429C67.3241 58.5436 66.7495 58.2654 66.1888 57.9763C64.257 56.9819 62.3353 55.9673 60.4096 54.9598C60.2494 54.8757 60.0884 54.7924 59.9282 54.7088ZM60.0573 57.7257C60.1969 59.0114 60.6411 60.2647 60.9698 61.5277C61.0643 61.8904 61.2241 62.2365 61.3536 62.59C61.2665 62.6264 61.1794 62.6623 61.0919 62.6986C60.0429 60.4588 58.9938 58.2199 57.8401 55.7566C59.8704 56.0414 59.8919 56.2004 60.0573 57.7257ZM77.0439 59.1617C77.952 58.1813 78.1245 58.1686 79.3814 58.9852C78.2378 59.9765 78.124 59.9848 77.0439 59.1617ZM76.9625 62.0402C77.9875 60.5911 78.3875 60.7571 80.9561 62.4941C79.3613 64.2257 78.3144 62.24 76.9625 62.0402ZM76.0207 73.6223V70.8248C77.545 71.9068 77.5393 72.2647 76.0207 73.6223ZM76.6172 67.2458C77.2155 66.1283 77.7958 66.6951 78.4273 67.0942C77.889 68.0759 77.2964 67.7154 76.6172 67.2458ZM80.9981 68.5709C80.2747 69.78 79.7784 68.6244 78.9499 68.613C79.8917 67.4131 80.385 68.234 80.9981 68.5709ZM78.2409 65.9097C79.2882 64.4908 79.9285 64.2901 81.08 65.0664C79.3928 66.7039 79.3928 66.7039 78.2409 65.9097ZM79.6733 51.878C79.5937 51.9555 79.5132 52.0335 79.4331 52.1115C79.1762 51.8688 78.8913 51.6493 78.6681 51.379C78.086 50.6768 77.5302 49.9531 76.966 49.2364C76.0163 48.0295 76.0172 48.0287 77.2536 46.944C78.0575 48.5833 78.8654 50.2304 79.6733 51.878ZM79.8081 47.2879C79.9644 47.5175 79.4269 48.221 79.2037 48.7094L78.7626 48.6428L77.8973 46.5734L78.2418 46.23C78.7858 46.5677 79.479 46.8038 79.8081 47.2879ZM80.423 45.0411C79.9985 44.8746 79.5766 44.7002 79.1075 44.5106C79.8335 43.8062 80.6637 43.7225 82.3168 44.136C81.68 45.533 81.6795 45.5343 80.423 45.0411ZM82.3548 50.8143C81.7373 51.0798 81.2134 51.3054 80.5806 51.577C80.1499 50.8871 79.7425 50.233 79.272 49.4787C79.6838 49.1466 80.0637 48.8409 80.5272 48.4672C81.1255 49.2351 81.6914 49.9623 82.3548 50.8143ZM81.1587 47.5626C82.873 47.7063 83.2787 48.9718 83.8752 50.1183C82.9676 50.3916 81.6279 49.1111 81.1587 47.5626ZM74.0994 53.0581C72.3654 51.2507 70.5833 49.4892 68.8266 47.7032C68.4484 47.3186 68.1057 46.8989 67.5394 46.2624C68.9128 46.1555 69.9885 46.0714 71.056 45.9877C71.4621 48.8816 73.3313 50.7276 75.011 52.6757C75.1716 52.8623 75.5997 52.8172 75.9524 52.7537C74.4841 50.5664 72.4945 48.8216 71.7711 46.2584C73.1856 45.5567 74.134 45.6802 74.3699 46.6755C74.5878 47.595 74.5239 48.582 74.5931 49.6881C74.9121 49.498 75.2684 49.2855 75.6548 49.0546C76.6063 50.1954 77.5617 51.3409 78.5157 52.4838C77.6015 53.2184 76.001 53.4541 75.5607 55.057C78.5319 53.7376 81.4152 52.4571 84.2761 51.1858C84.7414 51.4912 85.1164 51.7369 85.7418 52.1469C85.5593 51.5503 85.4644 51.2384 85.3707 50.9322C86.3874 50.1147 86.8434 50.9847 87.6005 51.6103C86.8066 52.0252 86.1458 52.3484 85.5046 52.7085C83.1505 54.0315 80.7863 55.3391 78.4637 56.716C77.8575 57.0752 77.3612 57.161 76.6934 56.9346C73.1177 55.7202 69.5268 54.5037 65.7319 54.2339C63.6097 54.0836 61.4692 54.2072 59.1767 54.2072C60.8884 53.0607 68.943 53.2925 75.0189 54.6238C74.6333 53.9522 74.4504 53.4243 74.0994 53.0581ZM68.743 69.3813C68.0138 67.9217 66.9197 62.3789 67.1718 61.0209C68.56 61.4436 68.7894 61.84 68.7574 63.1463C68.7044 65.3117 68.743 67.4793 68.743 69.3813ZM73.6486 71.35V67.5511C75.8137 68.8105 75.8215 69.8326 73.6486 71.35ZM71.5908 62.0424C70.7277 61.0905 69.6432 60.3397 68.6576 59.4994C68.6953 59.4193 68.7338 59.3391 68.7718 59.2585C70.8292 60.0978 72.8871 60.9372 74.9629 61.7844C74.7265 62.3311 74.548 62.7433 74.3296 63.2489C75.2828 63.3592 75.6898 61.9951 76.6754 62.6671C77.3214 63.1078 78.0737 63.3934 78.7884 63.7531C77.6326 65.2933 77.2417 65.3529 75.5857 64.7159C74.0377 64.1206 72.719 63.287 71.5908 62.0424ZM82.0734 72.2813C82.0459 72.3462 82.0069 72.4062 81.9614 72.4513C81.8677 72.5446 81.729 72.6025 81.5964 72.6025H80.4834C80.3443 72.6025 80.22 72.5437 80.1193 72.4513C80.0178 72.3584 79.974 72.22 79.9679 72.0864C79.9626 71.9576 80.0296 71.8113 80.1193 71.7211C80.2125 71.6282 80.3517 71.5704 80.4834 71.5704H80.7806C80.7583 71.5616 80.7364 71.5533 80.7141 71.545C80.6244 71.5125 80.5346 71.4827 80.4436 71.4552C80.255 71.3973 80.0629 71.3505 79.8698 71.311C79.5867 71.2536 79.451 70.9334 79.5097 70.6763C79.5744 70.3915 79.8803 70.2619 80.1442 70.3153C80.9679 70.4831 81.8288 70.8024 82.4384 71.403C82.6437 71.6059 82.6262 71.9283 82.4384 72.1333C82.343 72.2367 82.2082 72.284 82.0734 72.2813ZM80.8581 75.152C80.8397 75.1516 80.8209 75.1489 80.8016 75.1489C80.6616 75.1472 80.5386 75.0907 80.4375 74.9974C80.3355 74.9045 80.2922 74.7661 80.286 74.6325C80.2799 74.5037 80.3473 74.3569 80.4375 74.2675C80.5298 74.1747 80.6703 74.1151 80.8016 74.116C81.2393 74.1203 81.6331 74.3135 82.0161 74.505C82.1351 74.565 82.2126 74.6903 82.2529 74.8134C82.2958 74.9465 82.2638 75.0915 82.2008 75.2111C82.1417 75.3228 82.0122 75.4153 81.8927 75.4481C81.7548 75.4862 81.62 75.4586 81.4957 75.3964C81.3924 75.3447 81.2887 75.2957 81.1837 75.2484C81.0778 75.2068 80.9697 75.173 80.8581 75.152ZM81.2861 76.8386C81.2708 76.8092 81.2546 76.7794 81.2358 76.7518C81.234 76.7505 81.2323 76.7479 81.2323 76.7479C81.1338 76.648 81.087 76.5205 81.0808 76.383C81.0751 76.2454 81.1417 76.1166 81.2323 76.0181C81.3189 75.923 81.4699 75.8665 81.5964 75.8665C81.7281 75.8665 81.869 75.9239 81.9614 76.0181C82.1163 76.1753 82.2354 76.3764 82.2944 76.5902C82.3163 76.669 82.3255 76.7544 82.3334 76.8351C82.3373 76.8754 82.3382 76.9157 82.3351 76.956C82.3277 77.0379 82.3185 77.1233 82.2966 77.2035C82.2734 77.2849 82.2375 77.3634 82.2008 77.4391C82.1426 77.5592 82.0148 77.6363 81.8927 77.6761C81.7596 77.7191 81.6152 77.6875 81.4957 77.624C81.3837 77.5649 81.2913 77.4352 81.2585 77.3156C81.2371 77.2473 81.234 77.1781 81.2493 77.1097C81.2511 77.0611 81.2655 77.0155 81.2848 76.9722C81.2918 76.9529 81.2957 76.9336 81.3005 76.9139V76.8916C81.2962 76.8736 81.2918 76.8561 81.2861 76.8386ZM94.1329 35.9744C93.7303 36.8343 93.4782 37.788 92.9163 38.4937C91.1635 40.6941 89.296 42.803 87.4666 44.9425C87.05 45.4301 86.6084 45.897 86.0491 46.5165C88.6868 46.5003 94.3557 39.404 94.8083 35.7545C96.1177 35.843 97.4394 35.9323 98.7616 36.0221C98.8263 36.1128 98.8907 36.2039 98.9554 36.2951C97.4127 37.8489 95.8569 39.39 94.3316 40.9605C92.8147 42.5209 91.3285 44.111 89.8982 45.8313C96.2192 45.1444 102.465 44.0988 108.774 44.9692C108.785 45.0717 108.796 45.1747 108.807 45.2772C108.685 45.3135 108.559 45.392 108.443 45.3801C102.101 44.7305 96.0556 46.1139 90.1079 48.097C89.1393 48.4199 88.32 48.4571 87.3913 47.9748C86.2701 47.3917 85.067 46.9668 83.7479 46.4091C84.5575 45.4191 85.3291 44.4996 86.0731 43.5582C87.257 42.0622 88.4408 40.5662 89.584 39.0396C90.0098 38.4714 90.3674 37.8397 90.6742 37.1975C91.5009 35.468 92.0182 35.2437 94.1329 35.9744ZM100.209 36.2894C100.866 36.3507 101.513 36.5307 102.163 36.6639L102.305 36.9583C99.7113 39.1666 97.1169 41.3749 94.5229 43.5832C94.5872 43.6809 94.6516 43.7781 94.7159 43.8754C95.133 43.652 95.6004 43.4899 95.9584 43.195C97.983 41.53 100.103 39.9538 101.943 38.1008C103.055 36.9811 103.981 36.8059 105.485 37.6999C103.455 39.4925 101.474 41.243 99.4924 42.9935C99.5472 43.0912 99.6027 43.1894 99.6579 43.287C100.107 43.0685 100.625 42.9305 100.993 42.6164C102.443 41.3801 103.953 40.1855 105.225 38.7807C105.98 37.9475 106.585 37.7135 107.534 38.2099C107.808 38.3535 108.108 38.4477 108.657 38.6711C107.006 40.1189 105.438 41.3468 104.055 42.7565C103.119 43.7124 102.102 44.041 100.829 44.1281C97.8289 44.3345 94.8358 44.6512 91.6856 44.9372C92.0795 44.5163 92.4213 44.1518 92.7618 43.786C94.9798 41.4034 97.1913 39.0159 99.4246 36.6486C99.6119 36.4501 99.9572 36.2662 100.209 36.2894ZM102.826 31.8785C104.055 32.9741 105.284 34.0697 106.682 35.3155C105.161 35.2214 103.868 34.0903 102.826 31.8785ZM107.219 33.2093C107.01 32.8597 106.863 32.5465 107.453 32.4532C106.466 32.0594 105.926 31.288 105.604 30.3023C107.471 30.2502 108.12 30.7185 108.587 32.5159C108.173 32.4856 107.795 32.458 107.418 32.43C109.397 33.4047 109.397 33.4047 109.803 34.5419C109.495 34.5954 109.201 34.6466 108.906 34.6979C109.998 35.2122 111.038 35.7751 111.246 37.2667C110.14 36.978 109.145 36.6902 108.593 35.574C108.188 34.7588 107.685 33.9926 107.219 33.2093ZM104.435 28.7297C104.487 28.5969 104.539 28.4642 104.592 28.3323C105.567 28.3323 106.543 28.3731 107.515 28.3218C108.898 28.2495 110.277 28.0901 111.66 28.0125C111.954 27.9963 112.419 28.0774 112.535 28.2728C114.705 31.9639 117.058 35.5661 118.311 39.7212C118.321 39.7562 118.304 39.7996 118.28 40.0086C116.031 39.5065 113.842 38.8998 111.95 37.5738C111.503 37.2606 111.375 36.4922 110.964 35.655C112.843 36.0384 114.439 36.3643 116.036 36.6898C116.064 36.5973 116.09 36.5053 116.118 36.4129C115.565 36.239 115.017 36.0445 114.458 35.8955C113.5 35.6402 112.543 35.3532 111.568 35.1916C110.636 35.0365 110.227 34.4784 109.902 33.3955C111.239 33.6877 112.401 33.9413 113.564 34.1954L113.601 34.0644C112.6 33.7832 111.609 33.4468 110.592 33.2347C109.371 32.9798 108.91 32.0896 108.339 30.9112C109.912 31.2148 111.254 31.4733 112.595 31.7322C112.611 31.6424 112.626 31.553 112.642 31.4632C110.39 30.846 108.131 30.2563 105.894 29.5913C105.368 29.4349 104.919 29.0236 104.435 28.7297ZM119.115 42.5971C118.135 41.8844 117.186 41.1935 116.18 40.4606C118.713 40.5193 118.903 40.6582 119.115 42.5971ZM49.2989 52.6884C46.9912 48.5465 43.3315 45.6872 40.0504 42.4858C40.1152 42.4324 40.1852 42.3461 40.2097 42.3575C43.0921 43.7199 45.9259 45.2229 48.14 47.5402C49.439 48.9004 49.5528 50.8148 49.2989 52.6884ZM27.5178 52.5276C30.7066 51.0246 33.918 49.6119 37.5606 49.8572C34.2126 50.7473 30.8654 51.6375 27.5178 52.5276ZM24.2214 51.5845C23.5238 51.9774 22.8349 52.3888 22.1461 52.7979C24.0398 51.5678 25.9326 50.3338 27.8382 49.123C28.0417 48.9933 28.3542 49.0354 28.6535 49.1291C27.1756 49.9461 25.6928 50.7548 24.2214 51.5845ZM18.5061 53.8909C19.202 51.4688 22.013 49.5816 25.0766 49.4953C22.8791 50.9659 20.6926 52.4282 18.5061 53.8909ZM14.4727 57.5076C15.232 55.0653 16.0439 52.6612 18.9328 51.5402C17.3616 53.6425 15.9174 55.5748 14.4727 57.5076ZM65.1096 29.2514C65.2632 29.1143 65.5485 29.0319 65.7542 29.0613C67.3324 29.2821 68.9062 29.5366 70.4813 29.7801C70.4997 29.8288 70.5176 29.8765 70.5365 29.9243L63.4618 31.3383C63.4023 31.2293 63.3428 31.1202 63.2832 31.0111C63.8885 30.4206 64.4811 29.8152 65.1096 29.2514ZM95.1124 16.6706L95.133 16.4962C96.4858 16.3867 97.8381 16.2776 99.1913 16.1672C99.3095 16.158 99.4286 16.1501 99.5454 16.1296C100.271 16.003 101.198 15.5316 101.677 15.8163C102.621 16.3775 103.315 17.3588 104.038 18.4123L95.1124 16.6706ZM177.884 51.5437C175.148 49.9036 172.326 48.3769 169.138 47.91C167.435 47.6603 166.494 46.5327 165.353 45.5321C169.612 45.9996 173.621 47.3742 177.678 48.727C177.43 48.2806 177.139 47.8937 176.753 47.7277C173.018 46.1205 169.188 44.7887 165.08 44.6586C163.084 44.5956 162.046 43.1337 160.632 42.1722C165.736 42.1963 170.768 42.4924 175.838 43.9122C175.584 42.8223 174.867 42.6194 174.205 42.4591C169.975 41.434 165.67 40.8071 161.34 41.2553C159.105 41.4862 157.599 40.4878 155.981 39.312C161.755 38.6273 167.538 38.8424 173.36 38.9007C172.872 38.5178 172.352 38.2366 171.819 38.209C169.083 38.067 166.342 37.8629 163.608 37.9273C161.04 37.9878 158.433 38.1354 155.933 38.6663C154.298 39.0137 153.205 38.2462 151.885 37.8336C152.27 37.6031 152.641 37.4656 153.024 37.3819C155.775 36.7787 158.51 36.076 161.286 35.6178C165.008 35.0036 168.701 33.8747 172.625 34.495C172.266 34.1437 171.859 33.8108 171.4 33.7087C170.788 33.5725 170.132 33.5523 169.502 33.5922C163.732 33.9637 158.038 34.874 152.625 36.911C150.642 37.6575 148.91 37.4336 147.015 36.9793C152.9 34.4324 159.044 32.7682 165.32 31.4667C164.769 31.3383 164.221 31.2551 163.706 31.3506C157.833 32.4396 152.078 33.9107 146.726 36.6709C146.415 36.8308 146.063 36.9973 145.726 37.0043C144.15 37.0398 142.572 37.0205 140.788 37.0205C143.769 34.9493 146.873 33.3885 149.997 31.8864C153.134 30.3772 156.345 29.0205 159.524 27.5973C159.504 27.4882 159.484 27.3791 159.464 27.2705C158.571 27.4317 157.625 27.4562 156.792 27.776C151.211 29.9212 145.801 32.469 141.033 36.0957C139.135 37.5396 137.082 37.4165 135.006 37.7915C140.456 33.1773 146.569 29.7543 153.265 27.3738C152.454 26.8907 152.354 26.8101 150.966 27.3445C145.364 29.5015 140.098 32.2789 135.678 36.405C134.391 37.6066 133.123 38.5721 131.38 38.9554C130.292 39.1946 129.264 39.7098 128.209 40.1014C130.055 37.3118 132.545 35.277 135.146 33.4008C137.725 31.5399 140.433 29.8568 143.083 28.0953C142.052 28.2631 141.036 28.5527 140.137 29.0525C136.503 31.0716 133.205 33.5755 130.254 36.4918C129.087 37.6434 128.234 39.1136 127.234 40.4357C127.118 40.5894 127.005 40.7677 126.847 40.865C125.199 41.8756 123.542 42.8722 121.888 43.8723C122.161 43.1674 122.523 42.5239 122.984 41.9623C126.456 37.7328 130.406 33.9974 134.689 30.6002C135.592 29.884 136.374 29.014 137.212 28.2149C137.131 28.1041 137.05 27.9933 136.97 27.8824C132.03 29.6277 127.426 32.0572 123.05 34.9804C124.787 31.5841 127.599 29.321 130.828 27.5131C133.988 25.7451 137.16 23.9898 140.813 23.2477C140.18 23.0379 139.56 22.938 138.984 23.0541C135.983 23.659 133.325 25.1112 130.664 26.5406C129.876 26.9638 129.107 27.4233 128.329 27.8667L128.184 27.6485C130.06 26.0106 131.563 23.8194 134.135 23.161C137.205 22.3746 140.323 21.7697 143.439 21.1831C145.13 20.8646 146.858 20.7463 148.57 20.5378C148.564 20.4423 148.558 20.3468 148.551 20.2509C146.383 19.7283 144.224 20.3043 142.084 20.5759C139.889 20.8545 137.723 21.371 135.545 21.7832C136.713 20.887 138.009 20.2851 139.205 19.5254C140.894 18.4522 142.638 18.3637 144.559 18.6962C147.529 19.2109 150.53 19.5522 153.522 19.9311C154.052 19.9977 154.603 19.8917 155.144 19.8649C155.151 19.7055 155.159 19.546 155.166 19.3866C151.645 18.4202 147.956 18.2572 144.425 17.2904C149.671 16.0008 154.561 17.414 159.429 19.2166C156.673 16.6719 153.019 16.5742 149.61 15.6328C150.893 15.3305 152.192 15.0138 153.446 15.1404C156.82 15.483 159.818 17.0153 162.837 18.4395C163.209 18.6151 163.578 18.7991 163.95 18.9787C164.007 18.8626 164.065 18.747 164.122 18.6309C161.957 16.8852 159.231 16.1615 156.794 14.8438C157.348 14.765 157.892 14.7347 158.4 14.8535C160.177 15.2683 161.939 15.7445 163.713 16.1734C164.073 16.2601 164.46 16.2399 164.834 16.2689C164.863 16.1204 164.892 15.9718 164.922 15.8233C162.532 14.7128 159.979 14.1131 157.367 13.5568C158.835 13.3294 160.303 13.1025 161.771 12.8747C161.755 12.7332 161.739 12.5917 161.723 12.4502C158.029 12.2207 154.37 13.6965 150.563 12.6802C153.396 11.4322 156.229 10.1846 159.063 8.9365C159.052 8.83925 159.04 8.74288 159.029 8.64563C158.567 8.68505 158.051 8.60357 157.651 8.7823C154.758 10.072 151.908 11.4606 149.004 12.7267C146.354 13.8818 143.653 14.9222 140.975 16.0135L140.834 15.713C144.618 12.3841 148.74 9.52132 153.188 7.02084C152.689 6.19596 152.099 6.37644 151.583 6.67038C149.859 7.65384 148.19 8.73718 146.447 9.68428C142.114 12.0376 139.127 16.0424 135.118 18.8245C131.975 21.0065 129.201 23.7195 126.32 26.149C126.435 25.7639 126.5 25.1616 126.776 24.6806C128.179 22.2362 129.391 19.6262 131.13 17.442C134.147 13.6536 137.506 10.1381 140.709 6.49735C141.112 6.04001 141.439 5.51608 141.801 5.02325C141.684 4.9006 141.566 4.77881 141.449 4.65659C140.894 4.972 140.244 5.18972 139.801 5.62034C137.833 7.52899 135.866 9.44378 134.008 11.458C130.622 15.1294 127.593 19.0646 125.799 23.8005C125.441 24.7468 124.66 25.6965 125.466 26.8162C125.551 26.9336 125.405 27.2832 125.284 27.4728C124.742 28.3179 124.171 29.1441 123.611 29.9773C123.514 29.488 123.627 29.1165 123.745 28.7459C124.843 25.3009 125.958 21.8608 127.018 18.404C127.165 17.9243 127.038 17.3601 127.038 16.8348C126.903 16.809 126.768 16.7827 126.633 16.7569C126.413 17.1914 126.141 17.6072 125.982 18.0627C123.987 23.7651 122.012 29.4735 120.025 35.1776C119.746 35.981 119.303 36.7231 119.747 37.6513C119.932 38.039 119.777 38.5892 119.777 39.0658C119.093 37.7757 118.621 36.4808 118.22 35.1644C118.145 34.9195 118.329 34.5752 118.441 34.2966C119.033 32.8238 119.819 31.4032 120.205 29.8805C121.103 26.3413 121.913 22.772 122.566 19.1798C123.155 15.939 123.496 12.6522 123.928 9.38333C124.015 8.72798 124.068 8.03978 123.119 7.61485C121.825 16.5418 120.593 25.3881 117.802 34.2046C117.192 32.9601 116.827 31.9289 116.227 31.0589C115.367 29.8082 115.472 28.8742 116.378 27.6117C119.056 23.8807 120.242 19.539 120.937 15.0615C121.315 12.6298 121.606 10.1824 121.847 7.73313C121.902 7.17372 121.589 6.57751 121.446 5.99839C121.328 6.0273 121.21 6.05534 121.092 6.08381C120.428 13.9094 119.042 21.5318 114.927 28.607C114.328 27.44 113.827 26.4649 113.542 25.9103C114.445 23.9999 115.42 22.5017 115.868 20.8594C116.629 18.0719 117.128 15.2048 117.601 12.3482C117.892 10.5911 117.959 8.79369 118.059 7.01076C118.095 6.37776 118.039 5.67422 117.244 5.36451C116.656 12.0713 115.876 18.6388 113.134 25.0578C112.317 23.9179 111.664 23.069 111.095 22.167C110.944 21.9269 110.928 21.4661 111.054 21.2059C112.742 17.721 113.569 13.9966 113.957 10.1889C114.177 8.03189 114.081 5.83631 114.018 3.66131C114.006 3.22981 113.498 2.81277 113.219 2.38916C113.125 2.44961 113.032 2.50963 112.938 2.57008C113.353 8.82655 111.997 14.7829 110.076 20.8944C109.364 20.1554 108.82 19.6783 108.395 19.1115C108.174 18.8158 108.005 18.3247 108.084 17.9839C109.017 13.9151 109.13 9.78942 109.003 5.64662C108.985 5.05698 108.867 4.46209 108.72 3.8891C108.675 3.71212 108.381 3.59954 108.041 3.331C108.263 8.34117 107.871 13.0644 107.175 18.001C106.647 17.5318 106.296 17.2269 105.951 16.9133C104.657 15.7357 103.398 14.5166 102.059 13.3934C101.494 12.9203 100.796 12.5541 100.099 12.3065C99.348 12.0393 98.1169 12.7507 98.0469 11.1987C98.0443 11.1465 97.8434 11.0646 97.7331 11.0616C96.7085 11.0318 96.2332 10.2485 95.7076 9.56425C94.9816 8.61846 94.3233 7.6188 93.5806 6.68615C93.3482 6.39353 92.9368 6.24371 92.6069 6.02774L92.2598 6.39177C93.09 7.75066 93.9198 9.10954 94.8713 10.6669C94.2796 10.4391 93.8848 10.2963 93.4975 10.1355C92.5443 9.74079 91.6016 9.31718 90.6396 8.94658C90.0321 8.71177 89.4895 8.74769 89.2999 9.47094C90.63 10.0588 91.869 10.6826 93.1627 11.1571C94.4292 11.621 95.7518 11.9329 97.0499 12.3114L96.9856 12.6535C94.1098 12.961 91.2339 13.2668 88.2618 12.1791C88.433 13.5581 89.4557 13.6124 90.2742 13.7517C92.7753 14.1767 95.2568 14.0387 97.6941 13.2769C97.9734 13.1901 98.3756 13.1362 98.5904 13.2729C99.4089 13.7925 100.174 14.3966 100.959 14.9691L100.849 15.2604C96.7313 15.9618 92.5683 15.3187 88.3988 15.511C88.7958 15.8295 89.2142 15.999 89.6466 16.0472C90.9276 16.1896 92.1381 16.5497 93.3797 16.8848C96.8516 17.8218 100.436 18.3786 104.001 18.9157C105.065 19.0764 105.702 19.4803 106.351 20.4502C101.293 20.7183 96.4705 20.4423 91.6624 19.2092C92.0786 19.6547 92.5443 20.0485 93.076 20.1878C97.344 21.3027 101.665 21.718 106.058 21.06C106.465 20.9991 107.038 20.9273 107.287 21.1441C108.01 21.7754 108.608 22.5503 109.442 23.4772C104.501 24.2815 99.903 23.5894 95.2739 23.3918C95.6157 23.7274 95.9755 23.96 96.3663 24.0358C97.2219 24.2018 98.0898 24.3512 98.9581 24.3963C102.085 24.5601 105.221 25.0048 108.332 24.2368C109.921 23.8443 109.95 23.8513 110.754 25.7088C106.05 25.5651 101.48 25.4262 96.909 25.2865C97.2525 25.6062 97.6307 25.8463 98.0324 25.8958C102.063 26.3935 106.101 26.6839 110.152 26.128C111.387 25.9589 111.526 26.0487 111.823 27.4439H99.2277C99.2145 27.5469 99.201 27.6489 99.1878 27.7515C100.022 27.8654 100.859 27.9622 101.69 28.098C102.473 28.2263 103.448 27.8386 103.995 28.642C103.962 28.7476 103.93 28.8528 103.897 28.9579C103.315 28.8615 102.732 28.7647 102.149 28.6679C102.122 28.7682 102.095 28.8681 102.067 28.968C102.53 29.1336 103.001 29.279 103.453 29.4691C103.883 29.6496 104.463 29.7648 104.682 30.1017C105.928 32.0182 107.086 33.9917 108.274 35.9459C108.205 36.0222 108.136 36.0984 108.067 36.1742C107.717 35.8658 107.34 35.581 107.021 35.2428C106.369 34.5516 105.85 33.6877 105.096 33.1467C102.138 31.0221 99.113 28.9886 96.0989 26.9415C95.7794 26.7246 95.3772 26.6055 94.996 26.5104C94.733 26.4447 94.4397 26.4981 94.1592 26.4981C98.2968 28.2802 101.118 31.5885 104.135 34.676C103.556 34.5389 103.044 34.2975 102.621 33.9483C99.7831 31.6064 96.6985 29.6557 93.3727 28.0958C92.4436 27.6603 91.4528 27.3335 90.4615 27.0633C90.0667 26.9555 89.5936 27.1364 89.156 27.1859C89.1739 27.2832 89.1914 27.3804 89.2094 27.4772C93.7421 28.6455 97.4613 31.3086 101.166 34.0259C99.9922 33.7762 98.9134 33.3259 97.8355 32.8733C94.9487 31.6621 92.0874 30.382 89.1612 29.2733C88.075 28.8615 86.8412 28.8054 85.6652 28.6819C85.288 28.6429 84.8783 28.9088 84.4836 29.035C88.956 29.4923 92.8169 31.3344 96.6573 33.2356C95.2245 32.8251 93.8524 32.2092 92.4178 31.8342C90.9652 31.4544 89.4566 31.2687 87.962 31.0808C86.4263 30.888 84.8805 30.7562 83.3347 30.6712C81.9093 30.5932 80.4414 30.2445 79.0799 30.8876L79.0843 31.2122L88.0124 31.9608C88.0146 32.0493 88.0168 32.1383 88.0185 32.2267C87.6491 32.2618 87.2806 32.3091 86.9112 32.3301C84.6503 32.4576 82.3833 32.5163 80.1302 32.727C78.8392 32.8475 77.4575 32.9246 76.524 33.9952C80.2979 33.6873 84.0599 33.381 87.822 33.0744C87.8294 33.1782 87.8373 33.2816 87.8448 33.3854C86.674 33.7276 85.4683 33.9816 84.3387 34.4285C81.385 35.5955 78.4422 36.7984 75.541 38.0885C74.3567 38.6155 73.2915 39.4088 72.1672 40.0716C71.9746 40.1855 71.7628 40.2823 71.5479 40.341C71.0463 40.4773 70.4542 40.4584 70.0445 40.7265C68.1197 41.9882 66.2514 43.3361 64.3441 44.6262C64.0229 44.8435 63.6767 45.4507 63.2062 44.7826L70.1763 38.5954C68.9053 39.2928 67.6725 40.0607 66.4663 40.8685C65.2811 41.6623 64.0614 42.4227 62.9703 43.3344C61.9064 44.2249 60.9864 45.2881 60.0035 46.2755C59.9173 46.1945 59.831 46.113 59.7444 46.0324C60.3855 45.0341 61.112 44.0804 61.6455 43.0277C62.341 41.6561 63.1782 40.5434 64.7997 40.274C64.8264 40.2701 64.8347 40.1592 64.8597 40.0694C64.3721 40.1128 63.8951 40.1557 63.4185 40.1982C63.3918 40.0554 63.3664 39.9131 63.3401 39.7702C64.6522 39.5985 65.9643 39.4277 67.2764 39.256C67.2611 39.1583 67.2458 39.061 67.23 38.9638H56.6869C56.9123 38.0022 57.2349 37.6421 58.2078 37.813C61.5291 38.3956 64.8597 38.0837 68.1762 37.6513C68.5351 37.6044 68.8743 37.4021 69.4813 37.1751C65.3669 37.2969 61.5943 37.4082 57.8222 37.5199C58.1325 36.642 58.1741 35.7514 59.2306 36.062C62.692 37.0796 66.1647 36.4896 69.6318 36.0988C70.0051 36.0568 70.3544 35.8049 70.715 35.6507L70.6362 35.3944C66.7753 35.7663 62.9143 36.3227 58.905 35.6459C59.7995 34.1398 60.6494 33.2063 62.4937 33.5821C65.6242 34.2208 68.7486 33.6434 71.8354 33.0437C72.4928 32.9163 73.1015 32.5356 73.7318 32.2719C73.6893 32.1606 73.646 32.0493 73.6031 31.9381C69.638 32.9649 65.6282 33.4008 61.4061 33.0586C61.9379 32.1619 62.509 31.73 63.4084 31.7488C64.0014 31.7615 64.6106 31.7322 65.1888 31.6086C68.855 30.8245 72.5146 30.011 76.1739 29.1962C76.2881 29.1712 76.3761 29.0293 76.4772 28.9417C72.9628 28.7402 69.4909 29.2637 65.7945 28.6355C67.107 27.3988 68.0795 26.7474 69.7995 27.1995C71.4678 27.638 73.3317 27.4225 75.1029 27.3427C76.1546 27.2946 76.3677 26.9726 76.4605 26.1516C74.0946 27.0133 71.7072 26.7785 69.2725 26.2971C71.4442 25.495 73.6153 24.6929 75.7874 23.8903C75.7537 23.7716 75.7213 23.6529 75.6889 23.5342C74.0211 22.7159 72.8263 24.6653 71.2345 24.5593C71.7768 23.3016 72.9177 22.4281 72.9339 20.9741C72.5422 21.1239 72.2604 21.3557 72.0135 21.619C70.8533 22.8596 70.3807 24.7783 68.4353 25.2479C68.3731 25.2628 68.2891 25.357 68.2856 25.4179C68.2375 26.2428 67.7267 26.1508 67.1101 26.1424C66.6326 26.1359 66.0746 26.3426 65.6855 26.6326C64.6999 27.366 63.7787 28.1878 62.8526 28.9978C62.1799 29.5865 61.5401 30.213 60.8858 30.8223C60.7501 30.7851 60.6149 30.7474 60.4788 30.7097L59.7339 18.846C59.4284 19.2065 59.1851 19.6297 59.2017 20.0424C59.3356 23.3349 59.2853 26.662 59.7811 29.9028C60.0429 31.6108 59.3776 32.3455 58.1785 33.3307C56.5998 28.243 55.4755 23.2315 55.7766 17.9252C54.9009 18.4552 54.6645 18.8771 54.6908 20.2855C54.7775 24.8545 55.416 29.3184 57.3233 33.5313C57.4506 33.8125 57.5115 34.2681 57.3701 34.5021C56.9027 35.2739 56.3289 35.9818 55.637 36.9329C53.3205 31.5311 52.7034 26.0058 51.98 20.4471C51.7126 20.9531 51.4592 21.4976 51.5239 22.0005C51.9638 25.4258 52.3148 28.8751 53.0233 32.2473C53.3704 33.8988 54.4304 35.3979 55.1477 36.9754C55.2497 37.1992 55.3451 37.5243 55.2567 37.7179C54.9398 38.4179 54.5429 39.0816 54.0772 39.9402C52.4014 36.8396 51.0889 33.8585 50.4246 30.6515C49.7641 27.4584 49.2871 24.2268 48.7295 21.0131C48.6398 21.0004 48.5492 20.9886 48.4595 20.9763C48.4039 21.6816 48.27 22.3913 48.3116 23.0909C48.3755 24.1602 48.5444 25.2243 48.6963 26.287C49.3921 31.1666 50.4154 35.9319 53.4789 39.9875C53.6234 40.1781 53.7415 40.5443 53.6558 40.727C53.0697 41.9685 52.4259 43.1828 51.6837 44.6345C49.3247 37.1839 48.3348 29.7372 46.9509 22.3348C46.6524 22.8499 46.4892 23.369 46.5575 23.8562C47.073 27.5158 47.4962 31.1977 48.224 34.8166C48.8249 37.8055 49.7812 40.7248 50.6272 43.6612C50.867 44.4926 51.692 45.1423 51.1336 46.1923C50.7327 46.9466 50.5506 47.8171 50.2705 48.6358C50.0701 47.772 50.2779 46.8985 50.0368 46.1752C48.3365 41.0836 46.5478 36.0213 44.774 30.9546C44.6545 30.6125 44.4283 30.3076 44.2519 29.986C44.1079 30.0185 43.9644 30.0513 43.8208 30.0846C43.876 30.6155 43.8453 31.1736 44.0003 31.6739C44.8445 34.4096 45.7369 37.1296 46.6052 39.8574C46.6866 40.115 46.7111 40.391 46.7618 40.6578C46.6507 40.6968 46.5395 40.7357 46.4288 40.7743C46.0314 39.9849 45.2217 39.1237 45.343 38.4245C45.4948 37.5506 45.3377 36.8694 45.0576 36.1632C42.5166 29.7705 37.9112 24.9544 32.9635 20.4112C32.6296 20.1041 32.1197 19.9894 31.6921 19.7852L31.4689 20.0743C31.7556 20.466 32.0068 20.8905 32.3346 21.244C33.7692 22.7877 35.2581 24.2815 36.6674 25.8485C39.5209 29.021 42.1726 32.3446 43.9504 36.2732C44.1543 36.7244 44.2922 37.2054 44.4602 37.6737C44.1075 37.636 43.9224 37.5072 43.7512 37.3613C41.6991 35.6112 39.6679 33.8353 37.5882 32.1185C36.7764 31.4487 35.7943 30.9818 35.0017 30.2931C34.0463 29.4625 33.3154 28.3468 32.2996 27.6139C29.4054 25.5243 26.4259 23.5513 23.4503 21.5782C23.0809 21.3338 22.5294 21.3649 22.0629 21.2689C22.0135 21.4153 21.9644 21.562 21.915 21.7088C25.4972 23.8741 29.0172 26.1218 32.0331 29.0433C31.0387 28.8033 30.0881 28.5189 29.1796 28.1348C27.6552 27.4899 26.1589 26.7785 24.649 26.0995C22.55 25.1564 20.4585 24.1961 18.342 23.2946C17.9358 23.122 17.4299 23.1868 16.9695 23.1421L16.9647 23.3629C19.2821 24.3906 21.5994 25.4183 23.9168 26.446C23.8717 26.6199 23.8258 26.7938 23.7803 26.9678C20.7788 26.7404 17.777 26.5126 14.7756 26.2857C14.7672 26.4145 14.7585 26.5433 14.7502 26.6721C15.9117 26.8508 17.0728 27.0291 18.4155 27.2359C16.1261 27.8566 13.9353 28.1321 11.9956 29.1541C12.0302 29.2943 12.0647 29.4341 12.0993 29.5743C14.2561 29.0806 16.4128 28.5864 18.5691 28.0918L18.6479 28.4283C16.6623 29.3811 14.6762 30.3334 12.6901 31.2858C12.7545 31.4185 12.8192 31.5521 12.8836 31.6853C13.1869 31.5486 13.4849 31.3979 13.7952 31.2779C16.0159 30.4228 18.2138 29.4976 20.4707 28.7511C21.9054 28.2763 23.3995 28.3525 25.0473 29.1962C24.5536 29.268 24.3264 29.2816 24.1089 29.3359C22.073 29.8476 20.0287 30.3282 18.0129 30.9077C17.5109 31.0523 17.1026 31.521 16.6505 31.8408C16.7073 31.9262 16.7638 32.0112 16.8203 32.0966C19.8957 30.517 23.2424 30.0802 26.6136 29.8336C27.4403 29.7731 28.2964 30.1139 29.1389 30.2699C29.1236 30.3847 29.1082 30.499 29.0929 30.6133C26.1536 31.1732 23.1356 31.3611 20.2703 32.3919C20.6987 32.6162 21.1106 32.6604 21.5097 32.6092C24.0709 32.2802 26.6351 31.9674 29.1875 31.5762C31.4799 31.2244 35.0179 32.4042 36.6551 34.17C33.0957 33.5287 29.5757 32.6534 25.9357 32.9504C26.3042 33.1809 26.695 33.212 27.0793 33.2825C30.5901 33.9278 34.1119 34.5226 37.6061 35.2503C39.811 35.7089 41.1297 37.4778 42.5853 39.0255C41.9026 38.8039 41.3144 38.4118 40.6767 38.1349C38.425 37.1567 36.1663 36.1921 33.8835 35.2888C33.4616 35.1219 32.9167 35.2652 32.4287 35.2652C32.4375 35.3607 32.4453 35.4566 32.4537 35.5525C40.0767 37.8725 46.6017 42.2011 47.0371 45.2268C39.2434 40.6091 36.8525 39.454 35.308 39.652C39.8526 43.7825 44.7661 47.4272 48.1133 52.6157C46.3627 51.3567 44.3464 50.6799 42.9464 48.7239C40.1323 44.7931 36.1518 42.0815 31.8738 39.8622C31.4825 39.6599 31.005 39.6248 30.5678 39.5118C35.1973 42.2852 39.45 45.399 42.9617 49.4804C41.3275 49.0717 39.7646 48.5517 38.2105 48.005C37.9978 47.9305 37.807 47.7457 37.6486 47.5726C35.4975 45.2268 32.9416 43.4062 30.1398 41.9523C27.9585 40.8199 25.7103 39.8123 23.4542 38.8345C22.9864 38.6317 22.3561 38.8052 21.8003 38.8052C27.7699 41.052 36.0284 45.781 37.0932 47.9744C35.5838 47.5748 34.1522 47.4478 32.9775 46.8297C30.9481 45.7621 29.1507 44.2543 27.1248 43.1775C24.4284 41.7442 21.6191 40.5185 18.83 39.266C18.117 38.9458 17.3082 38.612 16.2907 39.1894C22.0152 41.1414 27.1204 43.9008 32.0768 46.9918C29.5761 46.8398 27.1651 47.0089 24.7659 47.492C24.3615 47.5735 23.8958 47.5008 23.487 47.393C20.4602 46.5953 17.4693 45.6281 14.4088 45.0003C12.0131 44.5088 9.53641 44.3883 7.08818 44.1943C6.55643 44.1522 5.99405 44.5 5.44567 44.6683C11.4813 44.6941 17.1126 46.2939 22.7828 47.6822C21.5263 48.3712 20.3788 48.596 18.9236 48.2994C14.6526 47.4276 10.3041 47.641 5.9796 48.051C5.59535 48.0874 5.23034 48.3196 4.85615 48.461C4.87584 48.5693 4.89554 48.6775 4.91523 48.7861C9.73423 48.6402 14.5545 48.4352 19.3626 48.9872C18.0544 50.0806 16.7629 50.8008 14.9454 50.6172C11.4043 50.2589 7.88777 50.7736 4.42419 51.5564C3.80097 51.697 3.00926 51.7527 2.81319 52.8369C7.00415 51.6773 11.154 51.3851 15.3887 51.4833C14.3217 52.2135 13.5689 53.4042 12.1396 53.4546C8.70749 53.5759 5.51307 54.654 2.3589 55.881C1.9265 56.0497 1.56763 56.4089 1.17418 56.68C1.22757 56.7939 1.28096 56.9078 1.3348 57.0217C4.60975 55.7746 7.91053 54.6352 11.4047 54.2773C10.5168 55.3396 9.53772 56.079 8.14248 56.3037C5.55421 56.7195 3.26178 57.9513 1.04025 59.2857C0.6328 59.5301 0.343512 59.9717 -4.57764e-05 60.3221L0.240226 60.571C2.84689 59.3295 5.45398 58.0884 8.06064 56.847C7.41379 58.5646 6.77088 60.0654 5.20102 60.9692C4.33403 61.469 3.67274 62.3478 2.96987 63.103C2.71822 63.3728 2.61537 63.7815 2.44468 64.1267C2.51427 64.164 2.58386 64.2008 2.65388 64.238C4.04649 62.9383 5.43867 61.6385 6.83171 60.3383C6.91925 60.4058 7.00634 60.4733 7.09474 60.5403C6.39581 62.2983 5.69688 64.0558 4.99839 65.8137L5.3472 65.9846C6.57175 65.3476 6.46102 63.7798 7.38184 62.7192C7.31882 63.7588 7.26543 64.6437 7.21247 65.529L7.67157 65.6249C7.83482 65.2762 8.08253 64.9415 8.14599 64.5753C8.41164 63.0478 8.59546 61.5062 8.8598 59.9783C9.20117 57.9995 10.0178 57.009 11.9361 56.2144C10.6813 58.6159 9.39767 60.9319 9.29658 63.6431C9.54691 63.4955 9.65195 63.2966 9.73685 63.0885C10.6743 60.7681 11.5978 58.4415 12.5505 56.1272C12.9781 55.0903 13.797 54.4788 14.9353 54.0648C12.5978 58.9527 11.8157 62.2466 12.7755 63.478C13.0678 62.5637 13.2411 61.6718 13.6271 60.8842C14.5243 59.0517 15.6513 57.3853 17.3888 56.2004C18.7171 55.2944 19.9967 54.3189 21.2944 53.3687C20.7648 53.8751 20.223 54.3697 19.7285 54.9089C19.3959 55.2712 19.1569 55.7198 18.7521 56.3103C19.1761 56.2578 19.2768 56.277 19.3215 56.235C22.3758 53.3766 25.9221 51.3028 29.6886 49.5312C31.2545 48.7944 32.7254 49.0866 34.2699 49.349C34.0437 49.5326 33.8047 49.6311 33.5557 49.6802C29.6807 50.4503 26.1519 52.0545 22.8533 54.1857C22.3855 54.4884 22.0441 54.986 21.6441 55.3934C21.7176 55.4605 21.792 55.5284 21.866 55.5958C23.2975 54.7307 24.7291 53.8659 26.1611 53.0007C26.1913 53.0533 26.2215 53.1059 26.2517 53.158C26.0832 53.4331 25.9143 53.7082 25.6118 54.2019C26.1059 54.0223 26.3572 53.9413 26.6009 53.8401C30.5849 52.1912 34.7176 51.0662 38.9808 50.4599C39.7086 50.357 40.4912 50.64 41.2487 50.7451C41.2277 50.8411 41.2067 50.9379 41.1857 51.0342C35.1907 51.8486 29.9056 53.6609 29.233 55.2187C29.4728 55.163 29.6562 55.1381 29.8269 55.0776C32.6322 54.0893 35.4293 53.0778 38.2416 52.1101C41.4711 50.9988 44.3797 51.6261 46.747 53.6342C45.3132 53.4673 43.637 53.0857 41.9722 53.1282C40.243 53.1725 38.5099 53.5579 36.8044 53.9198C35.2118 54.258 33.4883 54.3263 32.2186 55.5774C36.4556 54.7657 40.6111 53.5045 44.9823 53.8033C44.9145 53.9934 44.8274 54.081 44.7281 54.1003C39.8014 55.0575 35.7002 57.7191 31.651 60.4746C31.3184 60.7002 31.1267 61.133 30.8694 61.469C30.942 61.5351 31.0142 61.6017 31.0869 61.6679C31.2523 61.5916 31.4296 61.5347 31.581 61.4379C33.1198 60.4531 34.606 59.3746 36.2008 58.4928C38.944 56.9762 41.6544 55.3374 44.7994 54.7469C46.4266 54.442 48.0936 54.014 49.5956 55.2007C49.6407 55.2366 49.7471 55.1963 49.9033 55.1862C49.9926 54.9383 50.0919 54.6636 50.2215 54.3044C50.6272 54.428 50.9979 54.541 51.1104 54.5751C50.8513 55.7645 50.5073 56.7317 50.4513 57.7152C50.2372 61.4883 50.0766 65.2662 49.9672 69.0445C49.7291 77.3134 49.137 85.5859 50.1125 93.8491C50.1563 94.2202 50.1545 94.727 49.9445 94.9754C49.0066 96.0833 47.8941 96.9896 46.3885 97.1907C45.1688 97.3536 44.9635 97.192 45.0257 95.9553C45.4979 86.6604 45.9268 77.3625 46.5137 68.075C46.7575 64.2179 47.3535 60.3835 47.7895 56.5381C47.6083 56.6818 47.5168 56.8513 47.4595 57.0318C47.315 57.4852 47.1684 57.9391 47.0542 58.4008C45.2883 65.5334 44.6541 72.8333 43.9884 80.1162C43.2129 88.602 42.8641 97.1184 43.2199 105.636C43.416 110.322 43.8637 115.002 44.3657 119.666C44.6712 122.507 45.3088 125.312 45.7671 128.139C45.862 128.723 46.1062 129.332 45.2445 129.736C41.0553 131.702 36.7689 133.381 32.2016 134.215C30.6475 134.498 29.0531 134.556 27.4819 134.752C27.19 134.789 26.9178 134.99 26.6373 135.116C26.811 135.403 26.9314 135.867 27.1708 135.94C27.7651 136.122 28.4159 136.203 29.0404 136.186C34.0104 136.052 38.7038 134.758 43.1359 132.57C45.9876 131.162 48.8556 129.853 51.913 128.94C54.068 128.295 56.1941 128.254 58.3907 128.577C61.66 129.057 64.2785 130.867 66.953 132.592C69.522 134.249 72.0928 135.906 74.7012 137.5C75.2631 137.844 75.9896 137.917 76.7196 138.139C73.6289 135.868 70.6752 133.679 67.7009 131.518C65.0212 129.571 62.2749 127.753 58.9435 127.07C58.6752 127.016 58.3491 126.595 58.2835 126.294C57.0134 120.464 55.7455 114.634 54.5499 108.789C53.9569 105.888 53.51 102.956 52.9472 99.7547C53.2829 100.07 53.4111 100.156 53.4951 100.274C55.5311 103.136 57.911 105.667 60.4472 108.106C67.4598 114.85 75.9515 118.284 85.4517 118.825C96.9339 119.48 106.455 115.335 113.206 105.658C113.97 104.562 114.786 103.503 115.578 102.427C115.704 102.468 115.83 102.507 115.957 102.548C113.963 112.26 111.969 121.973 109.968 131.72C107.292 132.091 104.946 133.056 102.79 134.435C100.849 135.676 98.966 137.011 97.1024 138.366C94.15 140.513 91.4444 143.019 88.0561 144.523C87.9822 144.556 87.9537 144.692 87.8574 144.863C89.3971 144.871 90.6676 144.278 91.8344 143.542C94.4879 141.866 97.0797 140.092 99.706 138.373C102.399 136.61 105.068 134.827 108.22 133.906C113.701 132.303 118.733 133.963 123.527 136.241C128.826 138.759 134.098 141.241 139.939 142.154C141.89 142.46 143.89 142.461 145.871 142.557C146.245 142.575 146.726 142.491 146.984 142.26C147.253 142.017 147.313 141.541 147.466 141.166C147.158 141.073 146.855 140.92 146.542 140.897C145.476 140.815 144.392 140.872 143.34 140.709C137.329 139.776 131.616 137.887 126.139 135.244C124.606 134.504 124.605 134.567 124.863 132.869C125.602 128.039 126.56 123.225 126.978 118.366C127.538 111.873 127.86 105.346 127.943 98.8295C128.059 89.836 127.436 80.8644 126.52 71.9121C125.78 64.6726 124.988 57.448 123.307 50.3535C123.141 49.65 122.891 48.9657 122.68 48.2722L122.389 48.3441C122.523 49.4717 122.667 50.5988 122.79 51.7277C123.293 56.3086 123.864 60.8833 124.266 65.4729C124.641 69.7485 124.868 74.0389 125.097 78.3267C125.337 82.8545 125.493 87.3872 125.709 91.9172C125.739 92.5691 125.489 92.9704 124.87 92.9406C123.541 92.8762 122.209 92.764 120.89 92.5835C120.005 92.4626 119.708 91.8936 119.79 90.9649C120.01 88.4701 120.26 85.967 120.268 83.4661C120.283 78.8532 120.165 74.2386 120.046 69.6267C119.895 63.7399 119.772 57.8497 119.459 51.9704C119.353 49.9868 119.687 47.8302 118.062 45.9395C118.715 45.8449 119.159 45.7805 119.626 45.7126C119.726 46.0898 119.808 46.4017 119.921 46.8266C120.3 46.6623 120.568 46.5033 120.858 46.428C121.715 46.2037 122.585 45.8248 123.441 45.8458C125.805 45.9036 128.085 46.4849 130.218 47.517C134.19 49.4397 138.149 51.3904 141.675 54.0959C141.841 54.2234 142.068 54.2738 142.367 54.4039C142.43 53.1939 141.535 52.794 140.869 52.3682C136.086 49.3091 131.284 46.2712 125.576 45.1081C128.176 44.4063 130.715 45.1585 133.244 45.5983C135.822 46.0464 138.366 46.7018 140.924 47.2664C140.835 46.8748 140.657 46.5743 140.412 46.5011C134.828 44.8374 129.253 42.9997 123.317 45.017C124.156 44.4466 125.043 44.0125 125.871 43.4851C127.544 42.4192 129.323 42.2287 131.247 42.5603C135.541 43.3002 139.644 44.6126 143.582 46.467C143.839 46.5879 144.126 46.6457 144.558 46.7837C144.461 46.4389 144.462 46.2602 144.373 46.1647C144.187 45.9636 143.979 45.7551 143.737 45.6377C139.432 43.549 134.93 42.1297 130.034 41.7258C131.376 40.9762 131.886 40.8856 133.193 41.0967C138.384 41.9374 143.438 43.2555 148.257 45.4042C148.339 45.441 148.468 45.3762 148.763 45.3276C148.395 44.9026 148.108 44.5701 147.82 44.2381L148 44.0239C149.734 45.0936 151.468 46.1638 153.193 47.227C153.253 46.4157 153.222 46.262 152.126 45.5527C148.158 42.9843 143.93 41.0174 139.254 40.1246C138.842 40.0462 138.437 39.931 138.028 39.8325C138.037 39.7422 138.047 39.6524 138.056 39.5626C139.657 39.5626 141.409 39.1359 142.83 39.6415C147.313 41.2378 151.305 43.8013 154.985 46.8266C155.487 47.2393 155.932 47.7212 156.403 48.1715C156.52 48.0909 156.638 48.0098 156.755 47.9297C156.485 47.4771 156.309 46.9142 155.928 46.5914C154.566 45.4366 153.21 44.249 151.714 43.287C149.524 41.8791 147.216 40.6556 144.958 39.3541C145.774 39.4693 146.601 39.6664 147.326 40.0546C151.662 42.3767 155.481 45.4353 159.247 48.5618C161.481 50.417 162.984 52.7252 163.536 55.6155C163.596 55.9314 163.78 56.2231 163.907 56.5267C164.035 56.5009 164.164 56.4755 164.292 56.4496C164.836 54.5156 164.174 52.6336 163.63 50.8108C163.075 48.9477 162.235 47.1701 161.505 45.3184C162.523 45.823 163.545 46.3807 164.034 47.5604C165.204 50.3846 166.359 53.2158 167.522 56.0431C167.629 56.3046 167.751 56.56 167.867 56.818C167.983 56.7729 168.1 56.7287 168.216 56.684C167.982 53.4467 166.337 50.6755 164.875 47.7558C167.399 48.8097 168.428 50.7175 168.701 53.1768C168.873 54.7153 169.105 56.2503 169.4 57.77C169.482 58.1962 169.878 58.5624 170.13 58.9567C170.251 58.4805 170.477 58.0021 170.468 57.5286C170.453 56.744 170.286 55.9625 170.183 55.1797C170.681 55.9888 171.008 56.8382 171.371 57.6714C172.093 59.3264 172.191 59.4044 173.158 59.2195C172.292 57.098 171.431 54.9887 170.569 52.8798C170.66 52.8102 170.752 52.741 170.844 52.6722C172.55 54.2654 174.257 55.8582 175.963 57.4515C176.054 57.3959 176.146 57.3407 176.237 57.285C175.992 56.8404 175.837 56.2963 175.484 55.9678C174.091 54.6715 172.637 53.4405 171.201 52.1912C170.995 52.012 170.66 51.9113 170.559 51.6927C170.114 50.7346 169.733 49.7468 169.218 48.4996C172.475 50.0556 175.627 51.5621 178.828 53.0914C179.089 52.2179 178.427 51.8692 177.884 51.5437Z" fill="#02374E"/>
</g>
<path fill-rule="evenodd" clip-rule="evenodd" d="M145.713 5.25671C139.781 10.9906 133.216 16.1352 128.629 23.2152C128.823 22.6773 128.924 22.078 129.227 21.611C130.304 19.9499 131.245 18.1328 132.609 16.7389C136.27 12.9978 140.114 9.43587 143.911 5.82927C144.337 5.42406 144.922 5.18662 145.434 4.87122C145.527 4.99957 145.62 5.12836 145.713 5.25671Z" fill="#02374E"/>
<path fill-rule="evenodd" clip-rule="evenodd" d="M103.529 14.0847C103.296 12.3154 103.191 10.7033 102.846 9.14464C102.497 7.56409 101.988 6.00677 101.407 4.49369C100.844 3.02792 100.1 1.63136 99.3407 0C102.461 0.801224 105.436 11.1852 103.529 14.0847Z" fill="#02374E"/>
<path fill-rule="evenodd" clip-rule="evenodd" d="M28.2946 20.2236C31.1718 20.7331 41.5109 31.7811 42.3376 35.1525C38.5248 29.3604 33.1635 25.0358 28.2946 20.2236Z" fill="#02374E"/>
<path fill-rule="evenodd" clip-rule="evenodd" d="M67.1022 15.9761C65.2443 19.5809 63.8745 23.3133 63.9016 27.6742C61.9711 24.8623 64.8102 16.9184 67.1022 15.9761Z" fill="#02374E"/>
<path fill-rule="evenodd" clip-rule="evenodd" d="M94.2319 1.51477C96.4994 2.18151 99.987 9.64397 99.0693 12.0021C97.9476 8.17075 96.6836 4.64782 94.2319 1.51477Z" fill="#02374E"/>
<path fill-rule="evenodd" clip-rule="evenodd" d="M11.7596 42.2656C16.8197 42.7103 21.5704 44.3066 26.217 46.2757C21.398 44.9396 16.579 43.6026 11.7596 42.2656Z" fill="#02374E"/>
<path fill-rule="evenodd" clip-rule="evenodd" d="M67.4176 25.3881C66.9458 23.6157 69.4553 18.1561 71.1149 17.2449C69.9249 19.8663 68.6561 22.6603 67.4176 25.3881Z" fill="#02374E"/>
</svg>
